<?xml version="1.0" standalone="no"?>
<!DOCTYPE svg PUBLIC "-//W3C//DTD SVG 20010904//EN"
 "http://www.w3.org/TR/2001/REC-SVG-20010904/DTD/svg10.dtd">
<svg version="1.0" xmlns="http://www.w3.org/2000/svg"
 width="3000.000000pt" height="3000.000000pt" viewBox="0 0 3000.000000 3000.000000"
 preserveAspectRatio="xMidYMid meet">
<metadata>
Created by potrace 1.14, written by Peter Selinger 2001-2017
</metadata>
<g transform="translate(0.000000,3000.000000) scale(0.100000,-0.100000)"
fill="#000000" stroke="none">
<path d="M20716 25969 c3 -5 -2 -6 -10 -3 -9 3 -16 2 -16 -4 0 -5 -11 -9 -25
-9 -13 0 -22 4 -19 9 3 5 -3 4 -14 -3 -17 -11 -24 -10 -38 2 -13 10 -16 10
-10 1 10 -16 -25 -13 -36 3 -5 6 -8 5 -8 -2 0 -7 -9 -13 -19 -13 -11 0 -22 6
-24 13 -4 9 -6 9 -6 -1 -1 -7 -5 -10 -11 -7 -5 3 -10 1 -10 -5 0 -7 -7 -9 -16
-6 -8 3 -12 2 -9 -4 3 -6 1 -10 -4 -10 -6 0 -11 5 -11 10 0 7 -6 7 -20 0 -14
-7 -20 -7 -20 0 0 5 -5 10 -11 10 -5 0 -8 -4 -5 -8 6 -11 -25 -9 -43 3 -9 5
-19 2 -28 -10 -13 -18 -13 -18 -14 1 0 10 -3 13 -6 6 -2 -6 -9 -10 -14 -6 -5
3 -9 0 -9 -6 0 -6 -4 -9 -9 -5 -5 3 -13 1 -16 -5 -5 -8 -12 -7 -23 2 -12 11
-16 11 -20 0 -3 -10 -7 -10 -17 -2 -10 9 -19 6 -34 -9 -12 -12 -21 -16 -21 -9
0 6 -3 9 -6 5 -3 -3 -17 -2 -30 3 -15 6 -26 5 -30 -2 -5 -7 -3 -8 6 -3 9 6 11
4 6 -4 -6 -9 -13 -8 -29 6 -11 10 -17 13 -14 6 11 -18 -10 -25 -69 -25 -30 0
-54 -5 -54 -10 0 -5 -4 -7 -9 -3 -5 3 -12 1 -16 -5 -3 -5 -12 -10 -18 -10 -7
0 -6 4 3 10 13 8 12 10 -2 10 -10 0 -18 -6 -18 -12 0 -9 -4 -8 -10 2 -6 10
-10 11 -10 3 0 -7 -5 -13 -11 -13 -5 0 -7 6 -4 13 4 6 1 5 -7 -3 -17 -20 -53
-26 -43 -8 6 10 5 10 -5 1 -7 -6 -19 -9 -28 -6 -9 4 -13 2 -9 -4 9 -15 -29
-23 -42 -10 -8 8 -11 7 -11 -3 0 -7 -3 -10 -7 -7 -3 4 -12 2 -20 -4 -7 -6 -13
-8 -13 -4 0 4 -7 2 -15 -5 -11 -9 -15 -9 -15 -1 0 7 -10 5 -27 -6 -15 -10 -24
-13 -20 -7 5 9 -4 9 -33 2 -22 -6 -40 -16 -40 -22 0 -6 -5 -4 -10 4 -6 10 -10
11 -10 3 0 -7 -7 -13 -16 -13 -9 0 -13 5 -9 13 4 6 0 4 -9 -7 -10 -12 -23 -17
-41 -14 -14 3 -28 1 -31 -4 -3 -4 -9 -6 -14 -3 -4 3 -11 -2 -14 -11 -5 -13 -9
-14 -20 -5 -11 9 -15 9 -18 0 -2 -7 -20 -13 -39 -14 -22 0 -33 -5 -31 -13 2
-10 -3 -10 -17 -3 -14 8 -20 7 -24 -3 -4 -9 -15 -12 -33 -8 -17 3 -25 1 -21
-5 4 -6 -4 -8 -20 -5 -20 4 -24 2 -18 -9 7 -11 6 -12 -7 -2 -12 11 -18 10 -32
-6 -11 -12 -25 -16 -43 -13 -15 3 -23 1 -20 -4 3 -6 -6 -11 -21 -12 -14 -1
-29 -8 -34 -15 -6 -9 -8 -9 -8 1 0 7 -5 10 -10 7 -6 -4 -7 -12 -3 -18 4 -8 2
-8 -9 1 -13 10 -17 10 -22 -5 -6 -15 -8 -15 -16 -3 -8 12 -10 12 -10 1 0 -8
-7 -11 -20 -8 -13 3 -18 1 -13 -6 4 -7 0 -8 -11 -4 -10 4 -15 3 -11 -3 3 -6
-3 -10 -13 -10 -27 0 -84 -25 -76 -33 4 -3 -3 -5 -15 -2 -11 2 -21 -1 -21 -6
0 -6 -4 -8 -9 -4 -5 3 -12 1 -16 -5 -3 -5 -12 -10 -18 -10 -7 0 -6 4 3 10 10
7 11 10 2 10 -7 0 -15 -6 -18 -14 -3 -8 -12 -12 -20 -9 -8 3 -14 0 -14 -7 0
-6 -4 -9 -9 -6 -5 3 -11 0 -14 -7 -2 -7 -17 -13 -32 -15 -35 -3 -47 -11 -38
-25 4 -8 2 -8 -9 1 -13 10 -17 10 -21 -2 -4 -10 -15 -13 -32 -10 -15 3 -24 1
-21 -5 7 -11 -49 -32 -60 -23 -4 4 -4 2 -1 -4 4 -7 -5 -14 -25 -18 -17 -3 -37
-14 -45 -24 -14 -16 -14 -16 -9 3 6 19 5 19 -8 1 -8 -10 -20 -15 -26 -11 -6 3
-9 1 -8 -6 2 -7 -1 -14 -7 -14 -25 -4 -44 -18 -38 -29 4 -6 -1 -5 -10 3 -15
12 -17 11 -18 -5 0 -11 -3 -13 -6 -7 -3 10 -8 9 -20 -2 -8 -8 -19 -13 -24 -10
-5 4 -9 -1 -9 -11 0 -14 -2 -15 -17 -3 -14 12 -16 12 -8 0 6 -11 4 -13 -8 -8
-12 4 -17 1 -17 -10 0 -9 -3 -14 -6 -10 -4 3 -15 -4 -26 -16 -11 -12 -16 -16
-13 -9 6 11 3 11 -13 1 -12 -7 -19 -17 -16 -21 3 -4 -3 -5 -12 -1 -10 4 -22 0
-30 -11 -7 -10 -18 -15 -23 -11 -6 3 -14 -1 -17 -9 -3 -9 -10 -13 -15 -10 -5
3 -9 -2 -9 -10 0 -9 -5 -16 -11 -16 -5 0 -7 6 -3 13 7 11 -33 -19 -46 -34 -3
-4 -15 -9 -28 -13 -12 -4 -19 -12 -16 -18 4 -6 2 -8 -4 -4 -6 3 -13 2 -17 -4
-4 -6 -11 -8 -16 -5 -5 4 -9 1 -9 -5 0 -6 -4 -9 -9 -6 -5 3 -12 -1 -15 -10 -3
-8 -10 -12 -16 -9 -5 3 -10 1 -10 -4 0 -6 -6 -11 -14 -11 -8 0 -17 -7 -20 -16
-4 -9 -10 -14 -13 -10 -4 4 -13 -4 -20 -16 -7 -13 -12 -18 -13 -11 0 7 -12 1
-26 -12 -15 -14 -31 -25 -36 -25 -5 0 -18 -9 -30 -20 -12 -10 -25 -17 -30 -14
-4 3 -8 0 -8 -5 0 -6 -7 -11 -15 -11 -8 0 -15 -4 -15 -10 0 -5 -7 -10 -15 -10
-8 0 -15 -5 -15 -11 0 -5 5 -7 12 -3 7 4 8 3 4 -5 -4 -6 -12 -9 -17 -6 -5 4
-9 1 -9 -5 0 -6 -4 -9 -9 -6 -5 3 -21 -7 -37 -21 -16 -15 -32 -26 -36 -25 -5
1 -8 -3 -8 -8 0 -6 -7 -10 -15 -10 -8 0 -15 -7 -15 -15 0 -8 -7 -15 -15 -15
-8 0 -15 -4 -15 -9 0 -5 -9 -11 -21 -14 -12 -3 -18 -10 -14 -16 4 -7 0 -8 -10
-5 -10 4 -15 2 -13 -7 2 -7 -4 -14 -12 -14 -8 0 -14 -7 -12 -14 2 -9 -4 -12
-19 -8 -11 3 -19 4 -16 1 6 -6 -49 -64 -61 -64 -5 0 -13 -7 -16 -16 -3 -8 -10
-13 -15 -10 -5 3 -15 -2 -22 -11 -10 -12 -10 -14 -1 -9 6 4 12 5 12 1 0 -3
-12 -10 -26 -15 -17 -7 -24 -15 -20 -25 3 -8 2 -14 -2 -14 -19 3 -33 -2 -27
-10 3 -5 -4 -12 -15 -16 -11 -4 -18 -11 -15 -16 4 -5 -1 -9 -9 -9 -9 0 -16 -6
-16 -14 0 -8 -5 -18 -12 -22 -7 -5 -9 -2 -4 7 4 8 -1 4 -10 -8 -9 -13 -20 -23
-25 -23 -16 0 -58 -43 -52 -53 4 -6 0 -8 -10 -4 -11 4 -17 1 -17 -8 0 -7 -9
-17 -20 -20 -11 -4 -18 -10 -15 -15 3 -4 -2 -10 -10 -14 -8 -3 -15 -12 -15
-21 0 -8 -6 -15 -14 -15 -8 0 -17 -7 -20 -16 -3 -8 -10 -13 -15 -10 -5 4 -17
-12 -27 -33 -10 -22 -21 -38 -25 -35 -4 2 -10 -5 -14 -16 -4 -11 -10 -18 -15
-15 -5 3 -12 -4 -15 -16 -4 -11 -9 -18 -12 -15 -7 7 -32 -17 -26 -26 2 -5 -3
-8 -12 -8 -9 0 -13 -4 -10 -10 3 -5 -1 -10 -11 -10 -14 0 -15 -2 -3 -17 8 -9
9 -14 3 -10 -7 4 -18 -1 -25 -10 -10 -12 -10 -14 -1 -9 6 4 12 5 12 1 0 -3
-12 -10 -26 -15 -14 -6 -22 -15 -19 -20 4 -6 1 -9 -7 -8 -7 2 -12 -3 -10 -11
2 -9 -3 -11 -13 -7 -9 3 -14 2 -10 -3 3 -5 -1 -12 -7 -14 -10 -4 -10 -6 0 -6
7 -1 -5 -19 -28 -41 -22 -21 -40 -43 -40 -48 0 -5 -10 -17 -22 -26 -13 -9 -16
-14 -8 -11 9 4 7 0 -4 -9 -10 -8 -15 -19 -11 -25 3 -6 -1 -11 -10 -11 -9 0
-13 -4 -10 -10 3 -5 -1 -10 -9 -10 -9 0 -16 -6 -16 -14 0 -7 -7 -19 -15 -26
-8 -7 -12 -16 -9 -21 3 -5 2 -9 -3 -8 -23 4 -31 -3 -28 -22 3 -16 0 -19 -12
-15 -13 5 -14 4 -3 -9 11 -13 10 -15 -1 -10 -15 5 -54 -47 -43 -58 3 -3 -4 -8
-15 -12 -12 -3 -19 -10 -16 -14 2 -5 -4 -19 -15 -31 -11 -12 -22 -30 -25 -40
-3 -10 -13 -21 -21 -24 -8 -3 -12 -10 -9 -16 3 -5 1 -10 -5 -10 -6 0 -8 -4 -5
-10 3 -5 -1 -10 -9 -10 -10 0 -13 -6 -10 -15 4 -10 0 -15 -11 -15 -9 0 -13 -4
-10 -10 3 -5 1 -10 -5 -10 -6 0 -8 -5 -5 -10 3 -6 0 -13 -9 -16 -9 -3 -12 -12
-9 -21 4 -11 2 -14 -5 -9 -7 4 -12 1 -12 -9 0 -9 -4 -13 -10 -10 -6 3 -7 -1
-4 -9 3 -9 1 -16 -5 -16 -6 0 -10 -6 -8 -12 1 -7 -4 -12 -11 -10 -8 1 -11 -2
-8 -7 4 -5 2 -12 -4 -16 -6 -4 -8 -11 -5 -16 4 -5 -1 -12 -10 -15 -9 -4 -14
-13 -11 -20 3 -8 -1 -14 -10 -14 -8 0 -12 -4 -9 -10 3 -5 1 -10 -4 -10 -6 0
-10 -3 -9 -7 4 -15 -14 -53 -22 -48 -6 4 -21 -30 -19 -44 0 -2 -4 -7 -9 -10
-6 -3 -12 -13 -14 -21 -2 -8 -9 -21 -15 -28 -7 -7 -13 -22 -13 -32 0 -11 -7
-23 -16 -28 -9 -5 -17 -13 -17 -18 -1 -5 -4 -8 -7 -7 -3 1 -6 -10 -7 -25 0
-14 -9 -32 -19 -39 -10 -8 -13 -13 -5 -13 7 0 9 -5 6 -10 -4 -6 -11 -8 -16 -5
-5 3 -6 -1 -3 -9 4 -10 1 -16 -7 -16 -7 0 -10 -3 -6 -6 3 -4 0 -19 -8 -34 -8
-15 -11 -31 -7 -35 4 -5 1 -5 -5 -1 -11 6 -14 2 -13 -19 1 -3 -6 -13 -15 -21
-8 -9 -15 -24 -15 -34 0 -10 -4 -20 -10 -22 -8 -2 -16 -29 -19 -61 -1 -5 -6
-5 -13 -1 -7 5 -9 2 -5 -9 3 -8 -1 -21 -9 -28 -11 -9 -11 -15 -3 -25 9 -11 7
-15 -5 -20 -9 -3 -16 -12 -16 -20 0 -8 -6 -14 -12 -14 -8 0 -9 -3 -3 -8 16
-12 16 -32 0 -32 -8 0 -14 -3 -14 -7 1 -5 0 -10 -1 -13 -1 -3 -3 -13 -5 -22
-8 -41 -29 -76 -44 -71 -10 3 -12 2 -5 -4 18 -14 25 -43 9 -37 -9 4 -13 -1
-11 -13 2 -10 -4 -24 -13 -31 -9 -8 -10 -11 -3 -7 6 3 12 1 12 -4 0 -6 -5 -11
-11 -11 -6 0 -9 -6 -7 -12 3 -7 -1 -24 -8 -37 -7 -14 -11 -28 -8 -33 3 -4 -2
-11 -11 -14 -13 -5 -13 -9 -3 -22 11 -13 11 -14 -1 -7 -11 6 -13 4 -8 -8 3 -9
-1 -18 -10 -21 -12 -5 -13 -9 -3 -21 11 -13 7 -19 -11 -17 -3 1 -6 -6 -6 -14
0 -7 5 -14 11 -14 6 0 5 -4 -2 -9 -8 -5 -15 -20 -15 -34 -1 -16 -6 -22 -12
-17 -7 6 -10 -2 -10 -23 2 -40 -4 -59 -16 -51 -5 3 -4 -7 1 -21 7 -17 7 -24 0
-20 -6 3 -10 -3 -10 -14 0 -12 -6 -21 -12 -21 -9 0 -8 -4 2 -10 12 -8 12 -10
1 -10 -11 0 -11 -3 0 -17 8 -9 9 -14 3 -10 -17 10 -35 -16 -24 -33 5 -9 5 -19
-2 -28 -6 -7 -11 -26 -10 -42 0 -22 -4 -30 -16 -31 -11 0 -13 -2 -4 -6 10 -4
10 -8 1 -19 -9 -11 -8 -14 2 -14 11 0 11 -2 -1 -10 -8 -5 -11 -10 -6 -10 5 0
3 -7 -4 -15 -7 -8 -9 -15 -5 -15 4 0 1 -8 -6 -17 -9 -11 -10 -14 -2 -9 9 5 11
2 7 -8 -3 -9 -11 -16 -17 -16 -8 0 -7 -4 1 -12 9 -9 7 -15 -6 -25 -9 -8 -11
-11 -3 -7 11 6 13 3 7 -12 -4 -10 -9 -23 -10 -29 -1 -5 -5 -16 -10 -23 -5 -8
-4 -18 3 -25 9 -9 6 -16 -11 -30 -13 -10 -17 -16 -10 -12 8 4 12 -1 12 -15 0
-14 -4 -19 -12 -14 -10 5 -10 4 -1 -6 14 -15 5 -43 -11 -33 -6 4 -4 -2 4 -12
9 -11 10 -16 3 -11 -8 4 -13 1 -13 -8 0 -9 6 -16 13 -16 9 0 9 -2 -1 -9 -7 -4
-14 -18 -15 -29 -1 -12 -4 -22 -8 -22 -10 0 -5 -34 6 -42 6 -5 5 -8 -2 -8 -7
0 -13 -7 -13 -16 0 -8 -4 -12 -10 -9 -15 9 -12 -2 6 -19 14 -15 14 -16 -1 -16
-9 0 -13 -5 -10 -10 4 -6 12 -8 18 -4 7 3 3 -2 -7 -10 -15 -12 -16 -16 -5 -16
9 0 10 -3 3 -8 -16 -11 -24 -41 -13 -48 7 -4 6 -10 -1 -19 -8 -10 -7 -14 2
-18 9 -4 7 -6 -4 -6 -11 -1 -15 -8 -13 -26 1 -14 -3 -25 -9 -25 -6 0 -4 -5 4
-10 13 -9 13 -10 0 -10 -13 0 -13 -1 0 -10 12 -8 12 -10 1 -10 -8 0 -11 -3 -8
-7 4 -3 2 -12 -4 -20 -6 -7 -8 -13 -5 -13 4 0 2 -9 -4 -20 -9 -16 -8 -22 5
-26 8 -3 12 -10 9 -15 -3 -5 -10 -6 -16 -3 -6 4 -6 -2 1 -15 8 -15 9 -21 1
-21 -6 0 -9 -4 -5 -9 3 -5 1 -12 -5 -16 -5 -3 -10 -11 -10 -16 0 -6 5 -7 10
-4 6 3 10 1 10 -4 0 -6 -4 -11 -8 -11 -4 0 -8 -9 -9 -20 -1 -13 2 -18 9 -14 7
5 8 2 2 -7 -8 -13 -10 -22 -13 -70 -1 -13 -5 -18 -13 -13 -8 5 -7 0 2 -11 9
-11 10 -16 3 -11 -7 4 -13 2 -13 -3 0 -6 5 -11 10 -11 6 0 10 -5 10 -11 0 -5
-4 -8 -8 -5 -5 3 -9 -1 -9 -9 0 -8 5 -15 10 -15 5 0 4 -6 -2 -13 -6 -8 -8 -17
-4 -20 3 -4 0 -7 -7 -7 -7 0 -10 -3 -7 -6 3 -4 2 -15 -3 -25 -7 -12 -6 -20 2
-25 7 -5 8 -3 3 6 -6 9 -4 11 4 6 9 -6 8 -12 -4 -26 -9 -10 -12 -21 -7 -24 5
-3 7 -18 5 -33 -2 -16 -5 -34 -5 -41 -1 -7 -8 -10 -17 -7 -11 3 -10 0 3 -10
20 -15 20 -15 0 -15 -15 0 -16 -2 -4 -10 8 -5 11 -12 7 -16 -4 -4 -2 -13 4
-20 7 -8 7 -14 -1 -19 -5 -3 -10 -11 -10 -16 0 -6 4 -8 8 -5 4 2 8 -4 9 -14 1
-11 -2 -22 -8 -25 -5 -4 -9 -11 -9 -16 0 -6 4 -8 8 -5 5 3 9 -1 9 -8 0 -8 -6
-12 -13 -9 -8 3 -11 -4 -10 -21 2 -14 -1 -26 -6 -26 -5 0 -4 -9 2 -20 8 -15 8
-20 -2 -20 -9 0 -9 -3 2 -10 13 -9 13 -10 0 -10 -13 0 -13 -1 0 -10 12 -8 12
-10 1 -10 -11 0 -11 -3 -1 -15 7 -8 8 -15 3 -15 -5 0 -9 -9 -9 -20 0 -11 4
-20 8 -20 5 0 4 -9 -2 -20 -8 -15 -8 -20 2 -20 8 -1 6 -6 -5 -14 -14 -11 -15
-15 -5 -19 10 -4 10 -6 1 -6 -8 -1 -13 -14 -13 -32 0 -16 4 -28 8 -25 4 2 8
-4 8 -14 0 -14 -3 -16 -13 -8 -11 8 -12 7 -7 -8 4 -10 12 -25 17 -32 7 -9 5
-11 -8 -6 -14 6 -16 4 -9 -7 14 -24 16 -51 2 -42 -7 4 -5 -6 6 -21 10 -16 13
-25 7 -22 -15 9 -14 -29 1 -57 10 -20 10 -21 -6 -8 -15 12 -16 12 -10 -5 4
-10 12 -25 17 -32 7 -9 5 -11 -9 -5 -17 6 -17 5 -5 -10 10 -13 10 -17 1 -17
-10 0 -10 -3 -1 -14 9 -11 9 -16 0 -22 -8 -5 -9 -3 -4 6 5 9 4 11 -4 6 -9 -6
-9 -11 -1 -21 8 -10 8 -15 -1 -20 -8 -6 -7 -10 2 -16 12 -7 12 -9 0 -9 -11 0
-11 -3 0 -17 10 -11 10 -14 2 -9 -7 4 -13 3 -13 -3 0 -5 5 -13 10 -16 7 -4 7
-13 0 -26 -8 -14 -7 -19 2 -19 8 0 9 -3 3 -8 -15 -11 -17 -32 -3 -32 6 0 3 -7
-8 -16 -10 -8 -14 -13 -8 -10 7 3 14 -1 18 -9 3 -8 2 -15 -3 -15 -4 0 -8 -7
-8 -15 0 -8 5 -15 11 -15 6 0 5 -4 -3 -9 -10 -6 -10 -10 -1 -16 8 -5 6 -13 -7
-28 -10 -11 -13 -17 -7 -14 7 4 14 0 17 -7 3 -8 1 -17 -6 -19 -9 -3 -9 -7 0
-19 10 -11 10 -17 1 -26 -9 -9 -9 -12 1 -12 7 0 9 -5 6 -10 -4 -6 -12 -7 -18
-3 -7 3 -3 -4 8 -17 11 -13 15 -20 8 -17 -8 5 -11 0 -10 -13 1 -11 6 -20 12
-20 5 0 4 -4 -3 -9 -8 -4 -14 -12 -14 -16 0 -4 6 -12 14 -16 7 -5 8 -9 3 -9
-6 0 -11 -9 -12 -20 -1 -13 2 -18 10 -13 8 4 8 1 -1 -9 -7 -9 -9 -19 -5 -21
10 -7 10 -48 -1 -65 -4 -7 -3 -12 2 -12 5 0 9 -22 9 -50 -1 -27 -6 -50 -12
-50 -7 0 -7 -3 0 -8 6 -4 11 -26 11 -49 0 -37 -2 -40 -18 -32 -10 5 -18 14
-18 20 0 6 -4 7 -10 4 -5 -3 -10 1 -10 10 0 9 -3 14 -7 12 -11 -7 -33 19 -25
29 4 4 0 5 -9 2 -9 -4 -22 2 -29 12 -8 11 -17 17 -22 14 -4 -3 -8 3 -8 12 0
10 -3 15 -6 11 -4 -3 -15 4 -26 16 -11 12 -16 15 -12 7 7 -12 5 -13 -8 -3 -8
7 -18 10 -22 6 -4 -4 -4 0 0 10 3 10 1 17 -6 17 -6 0 -8 5 -5 10 4 6 3 9 -2 8
-4 -1 -19 4 -33 12 -14 7 -26 12 -28 11 -2 -2 -7 1 -10 5 -4 4 -1 4 6 0 6 -4
12 -3 12 3 0 5 -9 13 -20 16 -11 3 -20 11 -20 16 0 5 -3 8 -7 8 -21 -3 -33 2
-33 16 0 8 -3 14 -7 14 -19 -3 -34 2 -29 9 2 4 -9 14 -25 21 -16 7 -26 17 -22
24 4 6 0 8 -11 4 -10 -4 -19 -1 -22 8 -4 8 -13 15 -21 15 -8 0 -11 4 -8 10 3
6 -1 7 -9 4 -10 -4 -16 -1 -16 10 0 9 -6 13 -14 10 -8 -3 -20 4 -28 15 -8 12
-18 18 -21 14 -4 -3 -7 -1 -7 5 0 7 -3 11 -7 11 -20 -3 -34 2 -29 10 4 5 -7
15 -24 23 -16 7 -30 17 -30 21 0 5 -4 6 -9 3 -5 -3 -14 1 -21 9 -7 8 -21 15
-32 15 -10 0 -17 3 -15 8 3 4 -1 13 -9 20 -10 9 -14 10 -14 1 0 -7 -11 0 -24
16 -17 20 -25 24 -29 14 -4 -10 -6 -9 -6 3 -1 9 -6 20 -13 24 -7 4 -8 3 -4 -4
4 -7 2 -12 -4 -12 -6 0 -13 7 -16 15 -4 8 -12 15 -20 15 -8 0 -14 5 -14 10 0
6 -9 10 -20 10 -11 0 -20 5 -20 11 0 5 -4 7 -10 4 -5 -3 -10 -1 -10 5 0 6 -4
8 -10 5 -5 -3 -10 -1 -10 5 0 6 -4 9 -8 6 -5 -3 -16 4 -25 14 -10 12 -23 17
-33 13 -11 -4 -15 -2 -11 4 4 6 -6 16 -23 22 -17 5 -30 15 -30 20 0 6 -7 8
-15 5 -8 -4 -15 -1 -15 6 0 6 -4 8 -10 5 -5 -3 -10 -1 -10 5 0 6 -4 9 -9 6 -5
-3 -12 1 -15 9 -5 13 -10 14 -28 4 -13 -6 -20 -8 -16 -4 4 5 3 14 -3 22 -10
11 -15 11 -27 1 -13 -10 -14 -10 -8 0 5 8 0 12 -13 12 -12 0 -21 5 -21 10 0 6
-9 10 -20 10 -11 0 -20 5 -20 10 0 6 -9 10 -19 10 -11 0 -21 4 -23 10 -1 5
-15 11 -30 12 -20 2 -24 5 -17 14 8 9 5 11 -10 7 -12 -3 -21 -1 -21 5 0 6 -9
9 -20 7 -14 -3 -20 2 -20 13 0 15 -2 15 -10 2 -5 -8 -10 -10 -10 -4 0 11 -19
20 -59 29 -8 2 -17 7 -20 12 -3 4 -15 10 -26 11 -11 2 -22 8 -23 13 -2 5 -7 7
-12 4 -5 -3 -16 2 -24 11 -12 11 -16 12 -16 2 0 -10 -2 -10 -9 1 -5 7 -14 10
-20 7 -6 -4 -11 -2 -11 4 0 6 -4 8 -10 5 -5 -3 -10 -2 -10 3 0 6 -7 13 -16 16
-8 3 -12 2 -9 -4 3 -6 -1 -7 -9 -4 -9 3 -14 10 -11 14 3 4 -2 10 -9 13 -8 3
-17 1 -20 -6 -3 -9 -5 -9 -5 1 -1 6 -10 12 -22 12 -11 0 -17 4 -14 10 3 5 0 7
-8 4 -8 -3 -18 -1 -22 5 -3 6 0 11 7 11 9 0 9 3 -2 10 -13 8 -13 10 1 10 18 0
21 30 4 42 -6 5 -5 8 4 8 10 0 11 3 2 14 -9 10 -9 16 -1 21 8 5 8 10 0 20 -8
10 -8 15 1 20 8 6 7 10 -2 16 -12 7 -12 9 0 9 10 0 11 3 2 14 -9 10 -9 16 -1
21 8 5 8 10 0 20 -8 10 -8 15 0 20 8 5 8 10 0 20 -8 10 -8 15 1 20 8 6 7 10
-2 16 -12 7 -12 9 0 9 10 0 11 3 2 14 -9 11 -9 16 0 21 8 6 7 10 -2 16 -8 5
-9 9 -3 9 6 0 11 7 11 15 0 8 -5 15 -11 15 -6 0 -5 4 2 9 17 11 17 21 0 32
-11 7 -11 9 1 9 11 0 11 3 1 15 -10 12 -10 15 0 15 10 0 10 3 1 14 -9 10 -9
16 -1 21 8 5 8 10 0 20 -8 10 -8 15 1 20 8 6 7 10 -2 16 -8 5 -9 9 -3 9 6 0
11 7 11 15 0 8 -5 15 -10 15 -5 0 -4 6 2 14 9 10 9 16 1 21 -8 5 -8 11 1 21 9
11 8 14 -2 14 -12 0 -12 2 -1 9 8 4 14 12 14 16 0 4 -6 12 -14 16 -8 6 -9 9
-1 9 8 0 8 6 0 24 -7 13 -16 22 -22 18 -5 -3 -2 4 8 15 14 16 15 23 6 29 -8 5
-10 3 -4 -6 5 -9 4 -11 -4 -6 -9 6 -9 11 0 22 6 8 9 17 6 21 -4 3 -1 13 6 21
10 13 9 14 -2 7 -11 -6 -13 -4 -8 8 4 10 1 17 -6 17 -8 0 -6 4 3 10 10 6 11
10 3 10 -9 0 -13 17 -13 51 0 27 -4 48 -8 45 -4 -2 -9 4 -9 15 -1 12 3 17 10
13 7 -3 4 1 -5 9 -18 15 -25 33 -9 23 5 -4 7 3 4 14 -3 13 0 20 8 20 9 1 6 5
-6 13 -21 13 -26 37 -10 49 6 5 5 8 -3 8 -9 0 -11 7 -7 21 5 14 3 19 -3 15 -6
-3 -13 -2 -17 4 -3 5 0 10 7 10 9 0 9 3 -2 10 -13 9 -13 10 0 10 12 0 12 2 1
9 -9 6 -10 11 -2 15 7 5 7 12 -1 26 -7 10 -17 16 -23 12 -5 -3 -4 2 4 11 11
14 11 17 0 17 -12 0 -12 2 0 9 10 7 10 10 1 13 -7 2 -12 16 -12 31 0 15 -4 27
-8 27 -3 0 -7 6 -7 13 0 6 -4 21 -9 31 -5 14 -4 17 4 12 8 -5 10 -2 6 8 -3 9
-10 16 -14 16 -4 0 -7 14 -6 30 1 17 -2 30 -7 30 -4 0 -5 5 -2 10 3 6 2 10 -3
10 -5 0 -9 7 -10 15 -1 8 -3 22 -4 30 -1 8 -5 15 -10 15 -5 0 -7 9 -3 19 3 11
1 22 -5 26 -5 3 -15 15 -21 27 -9 16 -8 19 3 12 10 -6 11 -5 1 8 -7 8 -10 18
-6 21 3 4 2 7 -3 7 -9 0 -13 14 -16 57 -1 7 -5 10 -10 7 -7 -5 -12 10 -9 29 0
4 -3 7 -8 7 -6 0 -8 9 -6 20 2 11 -1 20 -7 20 -5 0 -7 7 -4 16 4 11 -1 18 -14
21 -16 4 -18 8 -9 19 9 11 7 14 -12 14 -19 0 -21 2 -9 10 8 5 10 10 4 10 -16
0 -75 56 -67 64 3 3 -1 6 -10 6 -9 0 -17 5 -17 10 0 6 -9 10 -20 10 -11 0 -20
5 -20 11 0 5 -4 7 -10 4 -5 -3 -10 -1 -10 5 0 6 -4 8 -10 5 -5 -3 -10 0 -10 7
0 9 -3 9 -10 -2 -6 -10 -10 -11 -10 -2 0 6 -9 12 -21 12 -13 0 -18 4 -13 13 6
10 4 10 -7 0 -15 -15 -33 -18 -25 -5 3 5 -1 9 -9 9 -8 0 -12 -4 -9 -9 3 -4 0
-8 -5 -8 -6 0 -11 6 -11 13 0 8 -3 9 -8 1 -4 -6 -28 -10 -54 -10 -27 1 -48 -1
-48 -5 0 -4 -6 -7 -12 -6 -32 1 -49 -4 -43 -12 3 -6 -7 -9 -22 -7 -18 2 -34
-5 -46 -18 -15 -17 -18 -18 -13 -3 7 21 -1 22 -21 2 -12 -12 -18 -13 -29 -4
-12 10 -13 8 -8 -7 4 -10 3 -16 -1 -11 -5 4 -17 0 -27 -10 -10 -9 -21 -13 -25
-10 -3 4 -1 7 5 7 7 0 12 4 12 9 0 5 -9 7 -20 4 -11 -3 -18 -8 -15 -12 2 -4
-12 -14 -31 -23 -23 -10 -34 -12 -34 -4 0 6 -5 4 -10 -4 -5 -8 -10 -10 -10 -5
0 6 -5 2 -11 -7 -5 -10 -28 -21 -49 -24 -22 -4 -37 -10 -34 -15 3 -5 -3 -6
-12 -2 -13 5 -15 3 -9 -8 4 -8 4 -11 0 -6 -5 4 -19 0 -33 -9 -20 -13 -26 -14
-33 -3 -7 11 -9 9 -9 -5 0 -11 -3 -16 -7 -13 -3 4 -13 1 -21 -6 -13 -10 -14
-9 -8 3 4 8 -1 4 -12 -9 -11 -13 -24 -21 -31 -17 -6 4 -11 2 -11 -3 0 -6 -6
-10 -12 -9 -7 2 -12 -3 -10 -10 1 -8 -2 -11 -8 -7 -6 4 -17 1 -25 -5 -8 -6
-19 -9 -25 -5 -5 3 -10 -1 -10 -9 0 -9 -8 -16 -19 -16 -11 0 -23 -5 -26 -11
-4 -6 -13 -8 -21 -5 -8 3 -17 -1 -20 -9 -4 -8 -12 -15 -20 -15 -8 0 -14 -6
-14 -12 0 -10 -2 -10 -9 0 -7 11 -9 11 -14 -2 -4 -9 -12 -15 -19 -14 -7 2 -12
-3 -10 -11 3 -12 0 -12 -12 -2 -12 10 -16 8 -21 -9 -3 -11 -11 -18 -16 -15 -5
4 -9 1 -9 -5 0 -7 -7 -10 -15 -6 -10 3 -15 -1 -15 -12 0 -15 -2 -15 -10 -2 -9
13 -14 7 -11 -12 0 -4 -6 -5 -14 -2 -8 3 -25 -5 -38 -18 -14 -12 -29 -24 -36
-25 -13 -3 -54 74 -46 86 2 5 -5 11 -17 14 -19 5 -20 8 -7 24 7 10 9 15 5 11
-11 -9 -35 21 -36 44 0 9 -8 23 -19 30 -19 13 -21 18 -21 44 0 8 -4 12 -10 9
-5 -3 -10 3 -10 14 0 11 -8 25 -17 30 -10 6 -13 11 -8 11 6 0 4 4 -3 9 -7 4
-14 17 -15 29 0 11 -5 18 -9 16 -4 -3 -10 7 -14 21 -3 13 -9 23 -14 20 -4 -2
-12 7 -18 20 -7 14 -20 25 -29 26 -13 0 -14 2 -4 6 10 4 7 11 -12 27 -13 11
-25 26 -27 31 -1 6 -6 9 -10 8 -5 -2 -7 6 -5 17 2 10 -4 25 -13 32 -15 12 -16
11 -3 -7 7 -11 1 -6 -15 10 -15 17 -31 29 -36 27 -4 -1 -8 7 -8 17 0 11 -10
27 -22 35 -12 9 -19 16 -15 16 4 0 -6 13 -22 29 -16 16 -27 33 -23 37 4 5 -1
2 -11 -5 -15 -12 -17 -12 -11 4 5 13 4 16 -4 11 -7 -4 -12 -1 -12 8 0 8 -9 18
-20 21 -11 4 -18 11 -15 16 4 5 -1 9 -11 9 -9 0 -32 17 -52 38 -19 20 -32 32
-28 25 3 -6 2 -14 -4 -18 -5 -3 -10 3 -10 14 0 11 -9 22 -20 26 -11 3 -20 11
-20 16 0 6 -4 7 -10 4 -5 -3 -10 -1 -10 5 0 6 -5 8 -10 5 -6 -3 -10 1 -10 10
0 9 -5 13 -10 10 -5 -3 -10 0 -10 7 0 9 -3 9 -10 -2 -8 -12 -10 -11 -10 7 0
16 -5 21 -19 18 -11 -2 -22 3 -25 11 -3 9 -10 12 -16 9 -5 -3 -10 -1 -10 4 0
6 -3 10 -7 10 -5 -1 -23 4 -41 12 -22 9 -31 18 -27 28 3 9 3 12 -1 9 -4 -4
-15 -3 -25 2 -12 7 -20 7 -24 0 -5 -8 -11 -8 -20 0 -10 8 -14 7 -18 -2 -3 -8
-6 -6 -6 5 -1 10 -5 15 -11 12 -5 -3 -10 0 -10 7 0 9 -3 9 -10 -2 -9 -13 -10
-13 -10 0 0 12 -2 12 -9 1 -6 -9 -10 -10 -16 -2 -5 9 -10 9 -20 1 -8 -7 -20
-8 -27 -4 -11 6 -11 5 0 -8 11 -13 10 -16 -5 -14 -10 0 -21 8 -25 16 -5 12 -7
12 -7 -2 -1 -11 -6 -15 -16 -12 -8 4 -15 1 -15 -7 0 -7 -3 -9 -7 -6 -3 4 -13
1 -21 -6 -9 -6 -13 -7 -9 -1 3 6 0 11 -7 11 -8 0 -12 -7 -9 -14 3 -8 2 -13 -3
-12 -21 4 -34 -2 -32 -13 2 -7 -1 -13 -7 -13 -23 -3 -45 -18 -39 -26 3 -5 0
-9 -6 -9 -6 0 -9 -3 -7 -7 5 -8 -11 -27 -25 -31 -5 -1 -7 -4 -5 -6 4 -8 -36
-46 -50 -46 -7 0 -13 -6 -13 -13 0 -14 -36 -48 -43 -40 -3 2 -8 -5 -12 -16 -3
-12 -11 -18 -17 -15 -6 4 -9 1 -6 -6 2 -8 -8 -26 -24 -40 -15 -15 -25 -30 -21
-33 3 -4 -1 -7 -10 -7 -10 0 -17 -5 -17 -11 0 -7 -12 -23 -27 -37 -16 -13 -21
-21 -13 -17 8 5 4 -3 -10 -16 -13 -13 -28 -23 -33 -21 -5 1 -6 -2 -2 -8 3 -5
0 -13 -8 -16 -9 -3 -18 -17 -21 -30 -4 -14 -11 -22 -16 -19 -5 3 -11 -4 -15
-15 -3 -11 -13 -20 -21 -20 -8 0 -14 -5 -14 -11 0 -5 6 -7 13 -3 6 3 -8 -12
-32 -35 -28 -27 -41 -46 -37 -56 3 -9 2 -14 -2 -11 -5 3 -16 -6 -26 -19 -10
-14 -22 -22 -27 -19 -5 3 -6 -2 -3 -10 3 -9 1 -16 -6 -16 -6 0 -8 -4 -5 -10 3
-5 1 -10 -5 -10 -6 0 -14 -8 -17 -17 -4 -10 -15 -26 -26 -35 -11 -10 -16 -18
-12 -18 5 0 0 -7 -11 -16 -10 -8 -12 -12 -4 -9 8 4 3 -3 -11 -16 -14 -13 -29
-31 -33 -39 -18 -39 -33 -59 -39 -53 -4 3 -7 0 -7 -8 0 -9 -9 -25 -19 -36 -11
-12 -17 -24 -14 -27 4 -3 1 -6 -6 -6 -8 0 -11 -8 -8 -19 3 -14 1 -18 -9 -14
-9 3 -14 -1 -14 -12 0 -9 -4 -13 -10 -10 -5 3 -10 1 -10 -6 0 -6 -8 -18 -17
-26 -12 -10 -13 -12 -3 -8 8 4 5 -2 -8 -13 -15 -14 -18 -22 -10 -25 8 -3 6 -6
-5 -6 -9 -1 -17 -4 -16 -8 3 -20 -15 -52 -34 -61 -12 -6 -16 -11 -8 -11 10 -1
9 -6 -5 -18 -11 -10 -26 -31 -34 -48 -8 -16 -21 -38 -29 -47 -8 -10 -10 -18
-5 -18 5 0 4 -4 -3 -8 -6 -4 -13 -14 -15 -22 -2 -8 -13 -24 -25 -35 -13 -11
-24 -32 -25 -47 -1 -15 -6 -24 -10 -22 -4 3 -8 0 -8 -6 0 -6 -5 -8 -10 -5 -6
4 -9 3 -8 -2 4 -16 -13 -53 -25 -53 -7 0 -6 -4 3 -10 9 -6 10 -10 3 -10 -6 0
-15 -9 -18 -20 -4 -12 -11 -17 -18 -13 -8 4 -8 1 1 -9 10 -13 10 -17 -3 -22
-9 -3 -13 -10 -10 -16 3 -5 0 -10 -7 -10 -7 0 -18 -11 -25 -25 -8 -19 -8 -24
0 -19 7 3 3 -2 -8 -11 -11 -9 -19 -18 -17 -21 4 -7 -34 -85 -39 -80 -3 3 -6
-4 -6 -16 -1 -12 -6 -24 -10 -27 -13 -10 -33 -50 -33 -66 0 -9 -7 -18 -15 -21
-12 -5 -13 -10 -4 -20 9 -11 6 -16 -12 -23 -13 -5 -18 -10 -11 -10 6 -1 12 -6
12 -13 0 -6 -3 -8 -7 -5 -3 4 -12 2 -20 -4 -10 -9 -10 -15 -2 -25 8 -9 8 -14
1 -14 -6 0 -16 -16 -22 -35 -6 -19 -16 -35 -20 -35 -5 0 -7 -6 -4 -13 3 -8 -2
-20 -11 -27 -11 -10 -13 -16 -4 -26 9 -11 8 -15 -4 -20 -9 -3 -19 -19 -22 -35
-4 -16 -10 -29 -15 -29 -4 0 -11 -7 -14 -16 -4 -10 -2 -13 7 -8 9 5 9 4 0 -7
-7 -7 -13 -21 -13 -31 0 -10 -4 -18 -10 -18 -5 0 -10 -11 -10 -25 0 -14 -7
-28 -15 -31 -8 -4 -15 -10 -15 -16 0 -5 6 -6 13 -2 6 4 3 -3 -8 -16 -12 -14
-14 -20 -5 -15 13 8 13 7 1 -9 -8 -10 -15 -27 -16 -38 -1 -11 -8 -24 -16 -29
-8 -5 -10 -9 -5 -9 5 0 3 -6 -3 -14 -9 -11 -9 -15 1 -19 8 -4 7 -6 -4 -6 -11
-1 -15 -6 -12 -16 4 -8 1 -15 -6 -15 -6 0 -8 -5 -5 -10 4 -6 -1 -22 -10 -37
-9 -14 -13 -23 -8 -20 5 4 10 0 10 -8 0 -8 -5 -13 -11 -12 -6 1 -10 -10 -10
-25 1 -16 -3 -28 -8 -28 -5 0 -6 -4 -3 -10 3 -5 1 -10 -6 -10 -8 0 -7 -5 2
-17 10 -11 10 -14 1 -9 -11 6 -17 -11 -13 -36 0 -5 -3 -8 -9 -8 -5 0 -7 -7 -4
-15 4 -8 1 -15 -6 -15 -9 0 -9 -4 1 -17 12 -14 12 -16 0 -8 -11 6 -13 4 -8 -8
4 -10 0 -20 -11 -26 -11 -7 -12 -11 -4 -11 8 0 10 -5 5 -12 -4 -7 -8 -24 -9
-36 0 -13 -7 -28 -15 -33 -12 -7 -12 -9 1 -9 13 0 13 -1 0 -10 -12 -8 -12 -10
-1 -10 11 0 10 -5 -4 -20 -11 -12 -13 -20 -6 -20 7 0 9 -5 6 -10 -4 -6 -11 -7
-17 -4 -7 5 -8 2 -2 -7 11 -19 14 -40 4 -34 -12 7 -18 -62 -7 -81 7 -12 6 -15
-2 -10 -6 4 -11 3 -11 -2 0 -5 -9 -12 -21 -15 -12 -3 -18 -10 -15 -15 3 -5 -2
-9 -12 -8 -10 0 -16 -5 -14 -14 2 -8 0 -12 -4 -8 -10 11 -66 -32 -61 -46 3 -7
-4 -13 -16 -13 -11 -1 -25 -9 -29 -18 -5 -8 -16 -15 -23 -15 -8 0 -15 -7 -15
-16 0 -10 -6 -14 -15 -10 -8 3 -14 2 -14 -2 3 -19 -2 -33 -10 -27 -5 3 -34
-17 -63 -45 -29 -27 -59 -50 -65 -50 -7 0 -13 -7 -13 -16 0 -8 -4 -12 -10 -9
-5 3 -10 1 -10 -5 0 -7 -7 -9 -16 -6 -14 5 -15 4 -4 -9 12 -15 4 -21 -24 -16
-5 1 -6 -5 -3 -14 4 -8 1 -15 -6 -15 -7 0 -23 -13 -37 -30 -17 -21 -27 -26
-32 -17 -5 8 -8 7 -8 -5 0 -10 -6 -17 -12 -15 -7 1 -12 -3 -11 -10 2 -6 -6
-14 -16 -18 -10 -3 -21 -15 -24 -26 -3 -11 -15 -23 -26 -26 -11 -3 -18 -9 -16
-14 7 -10 -51 -70 -60 -61 -3 3 -3 -2 1 -12 5 -14 4 -17 -4 -12 -7 4 -12 1
-12 -8 0 -9 -7 -16 -15 -16 -8 0 -15 -7 -15 -17 0 -9 -3 -14 -6 -11 -7 8 -46
-31 -63 -64 -8 -15 -17 -25 -21 -23 -4 3 -10 -5 -13 -16 -3 -12 -10 -18 -16
-14 -10 5 -15 -7 -12 -27 0 -5 -5 -7 -12 -5 -6 1 -11 -3 -10 -10 2 -7 -6 -17
-17 -23 -11 -6 -18 -15 -15 -19 3 -5 -2 -12 -11 -15 -9 -3 -12 -11 -8 -18 5
-8 2 -9 -9 -5 -9 3 -16 3 -16 -1 3 -20 -3 -31 -21 -37 -11 -4 -18 -10 -15 -14
2 -4 -5 -18 -16 -29 -10 -12 -19 -24 -19 -27 0 -3 -3 -4 -6 -2 -9 3 -33 -47
-27 -57 4 -5 2 -7 -3 -4 -11 7 -35 -17 -27 -26 4 -3 -1 -6 -11 -6 -9 0 -15 -4
-12 -8 3 -5 -4 -19 -15 -31 -11 -12 -21 -30 -22 -41 -1 -10 -5 -16 -9 -14 -5
3 -11 -2 -14 -10 -3 -9 -10 -13 -15 -10 -5 3 -6 -2 -3 -10 4 -9 0 -18 -9 -22
-9 -3 -14 -14 -12 -25 3 -12 0 -17 -7 -13 -7 5 -9 2 -5 -9 4 -11 1 -15 -13
-12 -13 3 -17 -1 -13 -11 3 -8 0 -14 -7 -14 -6 0 -9 -4 -6 -8 3 -5 -4 -15 -15
-22 -10 -8 -19 -23 -19 -33 0 -10 -4 -16 -9 -12 -5 3 -12 1 -16 -5 -3 -5 0
-10 7 -10 9 -1 7 -5 -4 -14 -10 -7 -15 -16 -12 -19 7 -7 -32 -47 -47 -47 -5 0
-7 -5 -4 -10 4 -6 12 -8 18 -4 7 3 4 -1 -5 -9 -10 -8 -15 -17 -11 -20 3 -4 1
-7 -6 -7 -7 0 -17 -13 -22 -29 -6 -16 -17 -32 -25 -35 -7 -3 -11 -12 -8 -21 3
-8 1 -15 -6 -15 -6 0 -9 -4 -6 -9 3 -5 -1 -14 -9 -21 -8 -7 -12 -16 -9 -21 3
-5 0 -9 -6 -9 -6 0 -8 -4 -5 -10 3 -5 1 -10 -5 -10 -6 0 -8 -4 -5 -10 3 -5 -1
-10 -10 -10 -9 0 -13 -5 -10 -11 4 -6 -1 -17 -11 -24 -11 -8 -15 -15 -10 -15
5 0 3 -7 -4 -15 -6 -8 -8 -20 -4 -26 4 -8 3 -9 -4 -5 -7 4 -12 2 -12 -4 0 -6
-5 -8 -11 -4 -8 5 -8 1 0 -14 8 -16 7 -21 -4 -26 -8 -3 -15 -13 -15 -21 0 -9
-4 -14 -9 -11 -5 4 -8 -5 -7 -18 2 -19 -1 -23 -13 -18 -14 5 -14 3 -2 -11 11
-14 11 -18 -3 -23 -10 -4 -15 -13 -12 -21 3 -8 1 -11 -4 -8 -6 3 -11 0 -11 -7
-4 -40 -20 -78 -31 -71 -6 3 -8 0 -6 -8 3 -8 -2 -23 -11 -33 -13 -16 -13 -18
-1 -12 8 4 7 1 -3 -7 -10 -9 -18 -18 -18 -21 3 -27 -1 -46 -8 -42 -9 6 -26
-40 -22 -58 1 -5 -6 -5 -16 -2 -14 6 -15 5 -6 -5 8 -8 9 -18 2 -31 -5 -10 -7
-23 -4 -28 3 -5 -3 -14 -13 -19 -13 -7 -18 -19 -16 -36 1 -18 -2 -25 -10 -22
-7 3 -13 -4 -14 -16 -1 -17 1 -19 8 -7 5 8 10 10 10 4 0 -6 -7 -17 -15 -24 -8
-7 -12 -16 -9 -21 3 -5 0 -9 -5 -9 -6 0 -11 -8 -11 -18 0 -10 -6 -24 -12 -31
-10 -11 -10 -12 -1 -7 9 5 11 2 7 -8 -3 -9 -11 -16 -18 -16 -7 0 -6 -3 2 -9
11 -7 11 -9 -2 -14 -10 -4 -13 -13 -9 -23 5 -13 3 -15 -7 -9 -9 5 -11 4 -6 -4
4 -6 2 -19 -6 -28 -11 -14 -11 -16 1 -8 11 6 11 3 -2 -14 -8 -13 -13 -30 -10
-39 4 -10 2 -13 -5 -8 -8 5 -10 2 -6 -8 3 -9 1 -16 -6 -16 -6 0 -9 -4 -6 -9 4
-5 0 -12 -6 -14 -10 -4 -9 -6 1 -6 11 -1 10 -6 -4 -21 -11 -13 -14 -20 -6 -20
8 0 7 -5 -3 -16 -9 -8 -14 -20 -11 -25 4 -5 1 -9 -6 -9 -8 0 -7 -5 2 -17 10
-11 10 -14 2 -9 -8 4 -13 1 -13 -8 0 -9 -6 -16 -12 -16 -9 0 -8 -4 2 -10 11
-7 11 -10 2 -10 -7 0 -11 -4 -7 -9 3 -5 1 -13 -5 -16 -8 -5 -7 -12 2 -23 10
-12 10 -14 0 -8 -8 5 -12 -1 -12 -19 0 -17 -4 -24 -11 -19 -8 4 -9 -1 -4 -16
6 -18 4 -22 -7 -17 -8 3 -15 -1 -15 -9 0 -7 4 -11 8 -9 3 3 9 -4 12 -15 3 -11
0 -18 -7 -17 -6 1 -10 -4 -9 -10 2 -7 -1 -13 -5 -13 -5 0 -7 -16 -6 -36 3 -27
0 -35 -10 -31 -11 4 -13 -2 -10 -23 3 -15 1 -31 -5 -34 -5 -3 -7 -16 -3 -28 4
-16 2 -19 -8 -13 -9 5 -11 4 -6 -3 4 -7 4 -18 0 -24 -11 -18 -12 -48 -2 -48 5
0 3 -6 -4 -14 -7 -8 -17 -11 -23 -8 -5 3 -4 -1 2 -9 10 -12 10 -18 1 -27 -9
-9 -9 -12 1 -12 10 0 11 -3 2 -13 -6 -8 -12 -22 -14 -33 -1 -10 -7 -25 -11
-33 -7 -11 -6 -12 5 -6 12 8 12 6 0 -8 -7 -9 -11 -24 -7 -32 3 -10 -1 -15 -11
-15 -14 0 -14 -2 3 -16 10 -8 14 -13 7 -9 -14 7 -29 -37 -18 -54 3 -6 1 -11
-6 -11 -8 0 -8 -4 1 -15 9 -10 9 -15 1 -15 -6 0 -11 -7 -11 -16 0 -8 -4 -12
-10 -9 -12 7 -2 -23 14 -44 8 -11 8 -13 -1 -7 -12 6 -16 -4 -12 -30 0 -4 -5
-11 -13 -15 -11 -8 -11 -10 1 -18 9 -6 10 -11 2 -15 -6 -4 -11 -12 -11 -17 0
-6 5 -7 12 -3 7 4 2 -6 -10 -23 -14 -20 -18 -34 -12 -38 15 -9 12 -28 -3 -19
-9 5 -9 4 -1 -5 9 -10 8 -20 -4 -43 -12 -25 -13 -35 -3 -51 7 -11 8 -16 2 -12
-7 4 -10 -3 -10 -17 1 -13 -3 -35 -9 -49 -8 -19 -7 -30 1 -38 8 -8 7 -11 -3
-11 -13 0 -13 -2 0 -10 8 -5 10 -10 4 -10 -6 0 -10 -11 -9 -25 2 -13 -3 -29
-10 -35 -16 -13 -8 -43 9 -34 6 3 0 -5 -14 -17 -19 -17 -20 -21 -6 -15 17 6
17 5 5 -11 -8 -9 -9 -14 -3 -10 7 4 11 -4 10 -22 -1 -16 -5 -29 -10 -28 -5 1
-9 -8 -11 -20 -1 -13 3 -23 9 -23 6 0 5 -4 -3 -9 -13 -8 -13 -12 0 -27 8 -11
9 -15 2 -10 -10 5 -12 -2 -10 -26 2 -20 -3 -38 -13 -46 -12 -11 -12 -12 0 -6
12 7 13 5 3 -8 -7 -8 -10 -18 -6 -22 11 -10 12 -37 2 -30 -5 3 -9 1 -9 -5 0
-5 6 -12 13 -14 9 -4 9 -6 0 -6 -17 -1 -17 -31 -1 -31 9 0 9 -3 0 -12 -16 -16
-15 -31 1 -23 6 4 3 -1 -7 -9 -11 -9 -16 -16 -12 -16 5 0 3 -6 -3 -14 -7 -8
-8 -17 -3 -20 5 -3 7 -18 5 -33 -2 -16 -4 -32 -4 -38 0 -5 2 -22 4 -38 2 -15
1 -29 -3 -32 -3 -2 -5 -20 -4 -39 2 -20 -1 -36 -7 -36 -6 0 -5 -8 2 -21 6 -12
7 -19 1 -15 -5 3 -12 -1 -16 -9 -3 -8 0 -17 6 -21 7 -5 8 -2 3 6 -5 9 -4 11 4
6 8 -6 9 -12 2 -20 -6 -7 -8 -16 -4 -20 4 -4 1 -11 -7 -16 -8 -6 -10 -10 -4
-10 14 0 14 -31 0 -49 -8 -11 -8 -13 0 -8 7 4 14 -3 16 -18 5 -22 3 -23 -10
-13 -13 11 -14 10 -3 -10 10 -19 10 -26 -1 -40 -11 -14 -11 -15 6 -8 19 7 19
6 2 -13 -13 -14 -14 -21 -5 -27 8 -5 10 -3 4 6 -5 9 -4 11 4 6 9 -6 9 -11 0
-22 -6 -8 -8 -14 -4 -14 4 0 1 -8 -6 -17 -8 -10 -9 -14 -2 -10 15 9 14 -32 -1
-52 -8 -11 -8 -13 2 -7 15 9 16 -16 1 -31 -8 -8 -7 -13 2 -18 8 -6 10 -4 4 5
-5 9 -4 11 4 6 9 -6 9 -11 0 -22 -6 -8 -8 -14 -4 -14 4 0 1 -8 -6 -17 -8 -10
-9 -14 -2 -10 15 9 14 -32 -1 -52 -8 -11 -8 -13 0 -8 7 4 14 -2 17 -13 3 -11
1 -23 -4 -26 -6 -4 -6 -11 0 -18 6 -7 8 -16 4 -20 -13 -13 -14 -56 -1 -56 6 0
3 -7 -8 -16 -16 -13 -16 -15 -2 -10 10 3 18 1 18 -4 0 -6 -4 -10 -9 -10 -6 0
-8 -10 -6 -22 3 -12 -1 -28 -8 -37 -8 -9 -8 -12 -1 -8 7 4 14 -3 16 -18 5 -22
3 -23 -10 -13 -13 11 -14 10 -3 -10 10 -19 10 -26 -1 -40 -11 -14 -11 -15 6
-8 19 7 19 6 2 -13 -13 -14 -14 -21 -5 -27 8 -5 10 -3 4 6 -5 9 -4 11 4 6 9
-6 9 -11 0 -22 -6 -8 -8 -14 -4 -14 4 0 1 -8 -6 -17 -8 -10 -9 -14 -2 -10 14
9 15 -31 1 -50 -6 -7 -4 -14 3 -19 8 -5 10 -3 4 7 -5 8 -4 10 0 6 13 -11 15
-38 2 -30 -6 4 -8 0 -4 -10 4 -10 1 -17 -6 -17 -8 0 -8 -3 -2 -8 16 -11 18
-65 2 -56 -6 4 -5 -1 4 -12 8 -10 15 -31 14 -46 0 -16 3 -28 8 -28 5 0 4 -7
-3 -15 -7 -9 -8 -15 -2 -15 6 0 8 -16 5 -37 -2 -21 -5 -42 -5 -48 -1 -5 2 -21
6 -34 5 -14 4 -21 -1 -18 -5 4 -10 0 -10 -8 0 -8 4 -15 9 -15 4 0 8 -12 8 -26
0 -17 4 -23 13 -18 9 6 9 4 -1 -8 -9 -11 -10 -18 -2 -23 7 -4 7 -12 0 -25 -7
-13 -7 -21 0 -25 7 -4 7 -13 0 -26 -8 -14 -7 -19 2 -19 9 0 9 -3 -2 -10 -12
-8 -13 -11 -1 -19 11 -7 11 -9 0 -14 -11 -4 -10 -6 2 -6 11 -1 15 -12 14 -48
-1 -27 4 -51 9 -55 7 -5 7 -8 -1 -8 -7 0 -13 -7 -13 -16 0 -9 5 -12 13 -8 9 5
9 4 0 -6 -9 -9 -9 -18 -2 -33 16 -28 18 -67 5 -67 -6 0 -4 -5 4 -10 8 -5 10
-10 4 -10 -15 0 -9 -46 8 -67 11 -14 11 -16 -1 -9 -8 6 -7 0 4 -18 10 -15 13
-26 6 -26 -6 0 -11 -5 -11 -11 0 -5 4 -7 10 -4 7 4 7 -2 1 -19 -7 -17 -6 -27
2 -35 17 -14 21 -65 4 -55 -9 6 -9 4 1 -8 8 -10 9 -19 3 -22 -11 -7 10 -53 31
-68 10 -7 8 -8 -4 -4 -20 6 -25 -10 -5 -17 9 -4 8 -8 -3 -16 -13 -9 -12 -12 5
-25 12 -10 15 -15 7 -16 -10 0 -10 -4 2 -16 12 -11 13 -20 6 -34 -6 -10 -6
-21 -2 -24 5 -3 8 -19 7 -36 -1 -21 3 -30 14 -30 10 0 12 -3 5 -8 -17 -11 -24
-41 -12 -48 7 -5 8 -2 3 6 -5 9 -4 11 4 6 9 -6 9 -11 1 -21 -7 -9 -6 -16 4
-24 8 -6 12 -21 9 -31 -3 -11 2 -32 12 -46 9 -15 12 -23 6 -20 -15 10 -14 -7
1 -22 7 -7 8 -12 2 -12 -6 0 -11 -6 -11 -14 0 -8 5 -14 10 -13 6 1 11 -9 13
-23 7 -69 9 -80 17 -80 4 0 3 -9 -3 -21 -11 -20 -3 -41 25 -61 6 -5 5 -8 -4
-8 -11 0 -11 -3 0 -17 12 -15 12 -16 -1 -8 -12 7 -11 4 1 -11 9 -10 18 -30 18
-44 1 -14 3 -41 4 -62 1 -25 5 -33 13 -27 7 5 11 3 10 -9 0 -58 5 -83 15 -76
8 4 8 1 1 -12 -7 -14 -6 -25 4 -38 7 -10 11 -23 8 -27 -3 -5 1 -9 8 -9 9 0 9
-3 -2 -10 -8 -5 -10 -10 -3 -10 6 0 10 -8 9 -17 -2 -10 2 -21 7 -25 6 -3 11
-16 12 -27 1 -17 -1 -19 -14 -8 -12 8 -11 6 1 -9 10 -11 18 -26 18 -33 0 -7 4
-10 9 -7 5 4 7 -3 4 -14 -3 -12 0 -20 7 -20 10 0 10 -3 0 -15 -10 -12 -9 -16
4 -21 9 -3 13 -10 10 -15 -3 -6 0 -17 8 -26 9 -12 9 -15 0 -9 -6 4 -12 2 -12
-3 0 -6 8 -11 18 -11 14 0 15 -2 2 -10 -10 -6 -11 -10 -2 -10 6 0 12 -7 12
-16 0 -8 -5 -12 -11 -8 -6 3 -4 -5 5 -18 9 -14 13 -28 9 -33 -5 -4 1 -5 11 -1
16 5 17 4 6 -9 -10 -12 -10 -15 0 -15 8 0 10 -3 7 -7 -4 -3 -1 -13 6 -21 10
-13 9 -15 -3 -8 -8 4 -6 0 4 -8 15 -12 16 -16 5 -16 -12 0 -12 -2 0 -9 8 -5
11 -16 8 -24 -3 -9 -2 -17 3 -19 4 -2 10 -14 12 -28 1 -14 9 -30 17 -36 11 -9
12 -12 1 -19 -9 -6 -11 -4 -5 5 5 9 4 11 -4 6 -6 -4 -9 -12 -5 -17 3 -5 10 -6
16 -3 7 5 9 -2 6 -19 -3 -15 -1 -24 3 -21 5 3 9 -4 9 -15 0 -12 4 -21 8 -21
13 0 10 -30 -2 -31 -6 0 0 -5 13 -10 18 -7 21 -13 13 -21 -8 -8 -6 -15 7 -27
9 -9 10 -11 2 -6 -12 8 -12 7 -3 -11 6 -12 8 -25 4 -29 -4 -5 -2 -5 4 -2 7 4
15 0 18 -9 4 -10 2 -13 -7 -7 -6 4 -4 -5 6 -20 10 -15 15 -32 12 -37 -3 -6 0
-10 7 -10 8 0 14 -9 15 -20 1 -13 -2 -18 -9 -14 -7 4 -8 2 -4 -5 4 -6 12 -8
18 -5 7 5 9 -2 6 -20 -4 -19 -1 -29 9 -33 8 -3 12 -12 9 -19 -3 -8 -1 -14 4
-14 6 0 10 -7 10 -16 0 -9 5 -12 13 -8 8 5 8 2 -2 -9 -12 -16 -8 -22 12 -18 5
1 5 -3 2 -9 -4 -6 1 -27 10 -46 9 -19 13 -39 9 -46 -4 -7 -3 -8 4 -4 7 4 12 1
12 -8 0 -9 6 -16 13 -16 8 0 7 -3 -3 -10 -12 -8 -12 -10 2 -15 9 -4 14 -13 11
-21 -3 -8 1 -14 8 -14 7 0 9 -3 6 -7 -4 -3 -1 -13 6 -21 10 -13 9 -15 -3 -8
-8 4 -6 0 5 -9 11 -9 18 -17 16 -18 -2 -1 -1 -12 3 -25 4 -12 11 -20 16 -17 4
3 6 -5 2 -17 -4 -16 -2 -19 8 -13 10 6 12 4 7 -7 -3 -9 2 -26 10 -39 9 -12 11
-19 5 -15 -7 4 -12 2 -12 -3 0 -6 10 -11 23 -11 15 0 18 -3 9 -8 -9 -7 -8 -14
8 -33 13 -14 17 -25 10 -27 -6 -2 -1 -12 11 -23 12 -10 17 -19 10 -19 -8 0 -7
-5 3 -16 9 -8 14 -20 11 -25 -4 -5 -3 -9 2 -9 4 0 13 -11 20 -25 8 -19 8 -24
0 -19 -7 3 -2 -3 11 -14 23 -21 30 -38 11 -26 -6 3 -4 -5 5 -18 9 -14 13 -28
9 -32 -5 -4 -1 -6 7 -4 9 2 14 -4 14 -14 -1 -10 2 -18 7 -18 5 0 9 -7 9 -16 0
-8 5 -12 10 -9 6 3 10 1 10 -4 0 -6 -6 -11 -12 -11 -7 0 -5 -5 5 -11 9 -5 17
-17 17 -25 0 -8 7 -17 16 -21 13 -5 13 -7 2 -14 -10 -7 -10 -9 0 -9 6 0 12 -5
12 -10 0 -6 9 -20 20 -32 11 -12 16 -26 12 -32 -8 -10 32 -59 40 -50 2 1 5 -9
6 -24 1 -14 7 -31 14 -37 8 -7 9 -6 3 4 -5 9 -4 12 2 8 6 -4 9 -18 8 -32 -2
-16 4 -30 16 -38 10 -8 16 -17 12 -20 -3 -4 0 -7 8 -7 11 0 11 -2 -1 -10 -13
-8 -12 -10 3 -10 10 0 15 -5 12 -10 -3 -6 -1 -10 5 -10 7 0 10 -7 6 -15 -3 -9
0 -15 9 -15 7 0 17 -5 21 -12 5 -7 3 -8 -5 -3 -10 5 -9 2 0 -13 7 -12 18 -18
24 -14 5 3 4 -2 -4 -11 -13 -17 -8 -22 20 -19 3 1 6 -4 6 -11 1 -36 22 -68 38
-59 6 3 3 -3 -5 -13 -12 -15 -12 -17 -1 -10 11 6 13 4 8 -8 -3 -10 -2 -17 4
-17 6 0 17 -7 25 -15 11 -10 12 -15 3 -15 -7 0 -1 -9 12 -21 20 -17 21 -22 9
-31 -13 -8 -12 -9 2 -4 16 5 36 -26 30 -47 -1 -5 2 -6 8 -2 5 3 10 1 10 -4 0
-6 0 -13 0 -16 0 -2 16 -21 34 -41 19 -21 32 -43 29 -51 -3 -7 0 -13 7 -13 6
0 8 -4 5 -10 -3 -5 1 -10 10 -10 9 0 14 -4 10 -9 -3 -5 2 -16 10 -24 8 -9 20
-28 25 -42 7 -19 15 -25 27 -21 13 5 14 4 3 -9 -9 -11 -9 -15 -1 -15 7 0 9 -4
6 -10 -3 -5 2 -10 11 -10 10 0 15 -3 11 -6 -6 -6 3 -19 34 -52 9 -9 20 -27 23
-40 4 -12 12 -20 17 -16 6 3 13 -3 16 -15 3 -11 10 -18 16 -14 5 3 7 1 3 -5
-3 -6 1 -17 10 -26 8 -9 13 -20 10 -24 -6 -10 30 -43 38 -35 6 6 9 -13 4 -21
-2 -2 12 -18 30 -35 17 -17 32 -36 32 -41 0 -6 5 -10 12 -10 6 0 8 -3 5 -6 -4
-4 2 -15 13 -24 11 -10 19 -24 17 -31 -2 -8 -2 -11 0 -7 3 4 11 1 19 -6 17
-18 18 -30 1 -20 -7 4 -9 3 -4 -2 5 -5 12 -9 15 -10 4 0 15 -4 25 -9 15 -6 16
-10 5 -16 -10 -7 -9 -9 4 -9 12 0 15 -5 11 -17 -4 -9 -2 -14 3 -11 11 7 35
-17 27 -26 -4 -3 1 -6 10 -6 8 0 19 -9 22 -20 3 -11 11 -20 16 -20 5 0 9 -7 9
-15 0 -8 7 -15 15 -15 14 0 19 -12 16 -32 -1 -8 15 -12 31 -9 5 0 7 -5 5 -12
-1 -6 4 -11 11 -9 8 1 11 -2 8 -7 -9 -14 5 -41 21 -41 9 0 13 -6 9 -15 -4 -10
1 -15 14 -15 11 0 20 -5 20 -11 0 -15 26 -39 34 -32 3 4 6 -6 6 -20 0 -18 5
-27 16 -27 11 0 14 -5 10 -16 -4 -11 -2 -15 8 -11 8 3 17 -1 20 -9 3 -9 11
-12 17 -8 8 4 9 3 5 -4 -4 -7 -2 -12 4 -12 6 0 8 -4 5 -10 -3 -5 -1 -10 4 -10
12 0 51 -36 51 -46 0 -4 9 -15 21 -25 11 -9 20 -20 20 -23 -3 -20 0 -26 12
-26 15 0 47 -35 47 -52 0 -6 3 -9 6 -6 7 8 101 -85 97 -94 -2 -5 6 -8 18 -8
12 0 19 -3 16 -7 -4 -3 5 -15 20 -25 16 -10 23 -18 17 -18 -5 0 -16 6 -24 12
-12 11 -12 10 -1 -5 7 -9 18 -17 23 -17 15 0 73 -62 70 -74 -2 -6 2 -6 9 1 9
10 20 3 51 -30 21 -23 38 -45 38 -49 0 -5 4 -8 9 -8 6 0 31 -20 56 -45 25 -25
50 -43 55 -40 6 4 10 0 10 -7 0 -15 34 -48 49 -48 6 0 13 -10 16 -21 4 -12 10
-17 14 -11 3 5 24 -9 47 -34 23 -24 39 -46 36 -49 -4 -3 1 -3 11 1 10 3 17 1
17 -6 0 -6 4 -9 9 -5 5 3 12 -4 16 -15 4 -11 11 -18 16 -15 5 4 9 -1 9 -9 0
-9 7 -16 15 -16 8 0 15 -5 15 -11 0 -5 4 -8 9 -5 5 3 11 -1 15 -9 3 -8 12 -15
21 -15 8 0 15 -4 15 -8 0 -5 12 -14 26 -20 14 -7 22 -17 19 -22 -3 -6 1 -10
10 -10 9 0 13 -5 10 -10 -4 -6 -3 -10 2 -9 4 1 11 0 16 -1 4 -1 10 -3 15 -4
15 -2 50 -45 44 -52 -4 -5 2 -2 13 6 11 8 17 10 13 6 -8 -10 36 -56 53 -56 15
0 39 -26 31 -34 -3 -4 1 -4 10 -1 10 4 25 -3 40 -18 13 -13 32 -23 41 -21 9 1
15 -1 13 -5 -6 -9 30 -41 44 -41 6 0 10 -4 10 -10 0 -5 7 -10 15 -10 8 0 15
-5 15 -11 0 -5 5 -7 10 -4 6 3 10 2 10 -4 0 -5 9 -13 20 -16 11 -4 18 -11 15
-16 -3 -5 0 -6 8 -3 8 3 23 -3 32 -13 10 -10 20 -16 23 -14 9 7 52 -40 46 -51
-5 -7 -3 -8 5 -4 7 5 20 1 29 -7 9 -9 39 -36 66 -62 27 -25 55 -44 63 -41 8 3
13 -2 13 -14 0 -11 6 -19 12 -17 7 1 12 -4 11 -10 -3 -11 6 -14 32 -13 3 0 17
-13 31 -30 14 -16 30 -30 36 -30 5 0 16 -7 25 -15 8 -8 19 -13 24 -10 5 4 9
-1 9 -9 0 -8 5 -18 12 -22 7 -4 8 -3 4 4 -4 7 -3 12 2 12 5 0 14 -10 20 -22 6
-13 11 -18 11 -11 1 7 13 1 29 -13 54 -50 65 -59 57 -46 -10 19 33 -6 57 -33
l18 -20 -6 20 c-4 17 -3 16 8 -3 8 -12 17 -19 21 -16 4 4 7 3 7 -3 0 -6 7 -14
16 -17 10 -4 13 -2 9 7 -4 6 0 4 8 -6 9 -10 18 -18 21 -18 20 3 26 -1 26 -15
0 -8 4 -12 10 -9 6 3 10 1 10 -4 0 -6 3 -10 8 -9 15 4 52 -14 52 -25 0 -7 4
-6 10 3 8 13 10 12 10 -2 0 -11 8 -18 20 -18 11 0 20 -4 20 -10 0 -5 9 -10 21
-10 13 0 18 -4 13 -12 -5 -9 -2 -9 9 1 17 13 22 8 19 -20 -1 -3 5 -6 13 -6 8
0 12 4 9 8 -3 5 9 1 25 -9 17 -9 31 -21 31 -25 0 -5 4 -6 9 -2 5 3 16 -2 24
-10 12 -11 17 -12 20 -2 3 7 6 5 6 -5 1 -11 9 -18 21 -18 11 0 20 -6 20 -12 0
-9 4 -8 10 2 7 11 10 11 10 2 0 -7 5 -10 10 -7 6 3 10 1 10 -5 0 -6 5 -8 10
-5 6 3 10 1 10 -5 0 -6 5 -8 10 -5 6 3 10 1 10 -5 0 -6 4 -9 9 -6 5 3 14 -1
21 -9 11 -13 14 -13 26 2 13 17 14 17 7 -1 -4 -13 -3 -17 5 -12 7 4 12 2 12
-4 0 -6 5 -8 10 -5 6 3 10 1 10 -6 0 -7 3 -9 7 -6 3 4 12 -1 20 -11 10 -11 12
-12 8 -2 -4 8 1 6 9 -4 9 -11 16 -15 16 -10 0 6 7 11 15 11 8 0 12 -4 9 -9 -5
-7 10 -12 29 -9 4 0 7 -6 7 -14 0 -8 5 -15 11 -15 5 0 7 4 4 10 -3 6 1 7 9 4
9 -3 16 -10 16 -15 0 -4 6 -6 14 -3 8 3 17 1 20 -5 4 -6 14 -7 23 -4 9 4 14 2
10 -3 -3 -5 6 -11 21 -12 14 -1 29 -8 34 -15 4 -6 8 -8 8 -3 0 5 9 1 19 -8 14
-13 21 -14 26 -5 6 8 14 5 27 -12 11 -13 17 -18 13 -11 -3 6 -1 12 4 12 6 0
11 -4 11 -10 0 -5 7 -7 15 -4 8 4 15 1 15 -5 0 -6 7 -8 17 -4 10 4 14 2 10 -4
-5 -7 0 -9 11 -6 11 2 26 -3 36 -12 9 -9 16 -11 16 -5 0 6 5 8 10 5 6 -4 8
-10 5 -15 -3 -4 4 -6 16 -3 12 4 25 0 30 -8 8 -12 10 -12 18 0 5 7 10 9 12 5
2 -5 18 -17 36 -26 30 -15 31 -15 27 0 -5 13 -2 13 10 -2 9 -11 16 -16 16 -10
0 5 5 2 10 -6 9 -13 10 -13 10 0 0 10 3 11 8 4 4 -6 18 -15 31 -19 18 -5 22
-4 17 6 -4 8 0 5 8 -5 9 -12 16 -14 16 -7 0 9 5 8 16 -3 8 -9 20 -14 25 -11 4
3 21 -2 36 -12 17 -11 24 -13 19 -4 -5 8 3 6 20 -5 17 -12 25 -14 20 -5 -5 8
3 6 20 -5 19 -13 25 -14 19 -5 -6 11 -4 13 9 8 10 -4 20 -7 22 -7 3 0 2 -6 -2
-12 -5 -8 0 -7 11 2 14 11 17 12 11 1 -6 -9 -5 -12 5 -9 8 3 23 -2 33 -11 11
-9 16 -10 12 -3 -4 6 -2 12 3 12 6 0 11 -5 11 -11 0 -8 5 -8 15 1 12 10 15 10
15 0 0 -7 7 -10 16 -6 8 3 12 2 9 -3 -3 -5 -1 -12 5 -16 5 -3 10 2 10 11 0 17
1 16 13 -1 8 -10 19 -15 25 -11 7 4 12 1 12 -6 0 -9 3 -9 10 2 7 11 10 11 10
2 0 -10 5 -10 20 -2 15 8 18 8 14 -3 -3 -10 5 -14 32 -15 21 -1 41 -7 46 -14
6 -10 8 -10 8 0 0 7 5 10 10 7 6 -4 7 -11 4 -17 -4 -6 3 -4 15 4 21 15 24 15
43 -4 15 -15 22 -17 34 -7 11 9 14 9 14 -1 0 -7 6 -10 14 -7 7 3 25 -1 40 -8
14 -8 28 -10 31 -5 3 5 16 3 30 -4 14 -7 43 -12 65 -11 28 1 40 -2 40 -12 0
-7 5 -13 11 -13 5 0 8 4 5 8 -9 15 78 1 115 -18 13 -7 19 -8 15 -2 -7 12 66 4
74 -9 3 -4 19 -7 35 -7 35 0 55 -4 73 -15 7 -5 12 -3 12 5 0 10 2 10 9 -1 7
-11 9 -11 14 0 5 12 6 12 6 0 1 -10 4 -11 15 -2 10 8 16 9 21 1 3 -5 15 -10
26 -10 13 0 18 -4 13 -12 -4 -7 -3 -8 4 -4 20 12 52 15 52 5 0 -6 5 -7 12 -3
17 11 58 11 58 1 0 -4 5 -5 11 -1 6 3 15 0 20 -7 7 -11 9 -11 9 -1 0 7 5 10
10 7 6 -4 8 -10 6 -14 -3 -4 1 -8 9 -8 8 0 12 5 8 10 -3 5 4 6 17 2 15 -5 20
-4 16 4 -5 7 -1 9 8 5 9 -3 16 -9 16 -13 0 -9 13 -10 108 -11 43 -1 72 -6 72
-12 0 -6 9 -8 20 -5 11 3 23 1 26 -4 4 -6 11 -6 19 1 10 8 14 7 18 -2 4 -10 6
-10 6 0 1 16 28 16 34 0 4 -10 6 -10 6 0 1 14 31 17 31 2 0 -5 3 -9 8 -9 4 1
9 1 12 -1 21 -8 50 -8 55 0 4 6 14 5 26 -3 16 -10 21 -9 29 3 8 12 10 12 10 1
0 -7 6 -11 14 -8 7 3 19 0 26 -6 10 -9 11 -9 6 0 -3 6 -2 14 4 18 5 3 10 2 10
-4 0 -5 8 -8 18 -6 9 1 25 -5 35 -13 15 -13 22 -14 38 -4 15 9 19 10 19 0 0
-9 3 -9 12 0 8 8 17 8 31 1 14 -8 18 -8 13 0 -4 6 -2 11 3 11 6 0 11 -5 11
-11 0 -8 5 -8 15 1 12 10 18 10 29 1 11 -9 16 -9 21 0 6 8 10 7 16 -2 7 -11 9
-11 9 1 0 13 2 13 9 1 8 -12 12 -12 24 -2 12 9 16 9 20 -1 4 -11 6 -11 6 0 1
8 9 6 23 -8 15 -13 25 -17 32 -10 14 14 29 12 20 -2 -5 -9 -2 -9 9 1 14 11 20
11 32 1 8 -7 15 -9 15 -4 0 5 16 10 35 10 20 1 35 -3 35 -10 0 -6 4 -5 9 3 8
12 12 12 25 2 11 -9 16 -10 16 -2 0 6 5 11 11 11 5 0 7 -6 3 -12 -5 -9 -2 -9
9 1 14 11 17 11 17 0 0 -9 3 -10 8 -4 11 15 32 17 32 3 0 -9 3 -9 12 0 16 16
31 15 22 -1 -6 -9 -4 -9 7 0 16 15 33 17 24 3 -4 -7 3 -7 20 0 33 13 38 13 29
-1 -5 -8 -1 -8 14 0 26 14 35 14 26 0 -5 -8 -1 -8 13 0 14 7 23 7 33 -2 10 -9
14 -9 17 1 3 6 9 12 14 12 6 0 7 -5 3 -11 -4 -7 -1 -10 7 -7 8 3 20 -2 27 -11
8 -9 11 -10 7 -3 -4 7 0 12 10 12 10 0 13 -5 9 -12 -6 -10 -5 -10 8 -1 8 7 18
10 22 6 3 -4 13 2 22 13 8 10 12 12 8 4 -7 -12 -5 -13 8 -3 8 7 18 10 22 6 9
-9 46 -11 40 -2 -4 6 45 5 54 -2 7 -6 29 -4 45 3 11 6 17 5 17 -4 0 -9 3 -9
10 2 8 12 13 13 30 2 11 -7 20 -9 20 -5 0 5 14 8 30 8 17 1 30 -4 30 -10 0 -5
5 -3 10 5 8 12 11 13 19 1 7 -11 9 -11 14 0 4 12 7 11 16 -1 10 -13 11 -13 11
0 0 13 1 13 10 0 5 -8 10 -10 10 -4 0 9 38 12 48 4 7 -7 29 -5 45 2 11 6 17 5
17 -4 0 -9 3 -9 10 2 8 12 13 13 29 3 15 -10 20 -10 24 0 3 9 9 8 22 -3 11 -9
16 -10 11 -2 -5 8 2 12 24 12 17 0 29 4 26 8 -2 4 5 9 17 9 17 2 19 0 7 -7 -8
-5 -10 -10 -4 -10 5 0 15 5 22 12 9 9 12 9 12 0 0 -7 10 -12 23 -12 18 0 19 2
7 10 -9 6 -10 10 -3 10 6 0 15 -5 18 -10 5 -8 11 -7 21 1 11 9 14 8 14 -2 0
-12 2 -12 9 0 7 11 9 11 14 0 5 -12 8 -11 19 1 16 19 62 25 53 7 -4 -6 1 -3 9
7 9 11 16 14 16 8 0 -13 27 -12 49 2 9 6 12 5 8 -1 -4 -6 0 -14 9 -17 10 -4
13 -2 8 6 -5 7 -2 9 8 5 9 -3 21 0 28 6 10 9 11 9 6 0 -5 -9 3 -8 27 2 19 8
37 11 41 8 10 -10 46 -11 40 -1 -9 14 8 9 27 -8 15 -14 17 -14 15 3 0 11 4 17
14 14 62 -16 88 -17 83 -5 -3 9 12 12 63 12 43 -1 69 3 72 11 2 6 8 9 13 5 5
-3 9 0 9 5 0 6 4 11 10 11 5 0 7 -6 4 -14 -4 -10 0 -13 13 -11 10 2 22 4 26 4
5 1 6 5 3 10 -9 13 22 7 36 -7 10 -10 17 -8 31 10 17 21 18 21 13 3 -5 -17 -4
-18 7 -5 15 19 37 24 37 9 0 -7 5 -8 13 -3 6 5 27 9 45 9 17 0 32 3 32 8 0 4
5 5 10 2 6 -3 10 0 10 7 0 10 3 9 9 -1 8 -12 12 -12 25 -2 9 8 16 9 16 4 0 -5
7 -10 15 -10 8 0 12 4 9 8 -4 7 3 8 64 9 15 0 21 4 16 12 -5 7 -3 8 7 2 22
-14 37 -13 50 2 6 8 16 11 21 8 13 -8 68 -12 63 -4 -2 3 5 11 15 18 15 9 22 9
34 -3 9 -10 16 -11 18 -4 2 7 15 13 28 14 14 1 25 4 25 5 0 9 45 5 45 -4 0 -6
5 -3 11 7 6 9 14 15 19 12 5 -3 12 0 16 6 4 8 9 7 15 -2 7 -12 9 -12 9 0 0 10
3 11 14 2 10 -8 16 -9 21 -1 3 5 15 10 26 10 11 0 17 5 14 10 -8 13 17 8 28
-5 4 -6 10 -5 16 4 5 8 14 10 21 6 8 -5 11 -4 7 2 -4 6 0 13 8 17 8 3 17 1 20
-4 4 -6 11 -10 16 -10 6 0 8 4 5 8 -2 4 3 8 12 9 54 4 82 10 89 18 4 4 2 5 -6
0 -10 -5 -12 -4 -7 3 5 9 13 9 27 2 14 -8 19 -7 19 2 0 10 2 10 9 -1 6 -10 10
-10 13 -1 2 7 18 14 36 16 18 2 31 0 27 -5 -3 -5 6 -4 19 2 15 7 20 14 14 18
-6 4 1 6 15 6 15 -1 27 -6 27 -11 0 -6 7 -1 15 10 8 10 15 15 15 10 0 -5 8 -2
17 5 11 9 14 10 9 2 -5 -9 -2 -11 8 -7 9 3 16 9 16 13 0 4 15 6 33 5 18 -1 40
5 51 14 11 9 17 12 13 6 -3 -6 0 -11 8 -11 8 0 13 5 12 11 -1 6 14 12 33 14
19 2 40 8 47 14 7 5 21 7 31 4 13 -5 22 -1 26 11 6 15 8 15 16 3 7 -11 10 -12
10 -2 0 7 5 10 10 7 6 -3 10 -1 10 5 0 6 5 8 10 5 6 -3 10 -1 10 5 0 7 7 5 16
-4 20 -20 25 -20 17 0 -4 12 -2 15 8 12 8 -3 19 2 25 10 9 12 13 12 19 2 6 -9
4 -11 -5 -5 -9 6 -11 4 -5 -5 6 -10 11 -9 22 6 8 10 21 18 29 16 9 -2 23 5 31
15 8 10 12 13 9 6 -4 -7 1 -11 13 -10 11 0 19 4 19 7 -2 18 4 21 19 9 11 -10
14 -10 9 -1 -5 8 -1 12 13 12 11 0 23 4 26 10 9 15 27 12 19 -2 -4 -7 2 -4 14
6 12 11 22 16 22 11 0 -4 6 -3 13 2 6 6 20 9 29 8 10 -2 15 2 12 10 -4 9 3 11
22 7 20 -4 25 -2 19 8 -5 9 -4 11 4 6 12 -8 71 14 71 26 0 3 8 5 18 4 9 -2 22
4 29 13 9 12 12 13 13 2 0 -11 3 -11 15 -1 8 6 18 9 24 6 5 -3 12 1 15 10 4 9
9 14 12 11 4 -3 13 1 21 9 8 8 25 12 40 10 19 -4 22 -2 14 8 -9 10 -6 13 11
12 13 -1 29 4 36 11 8 7 17 11 22 8 5 -3 10 0 12 6 2 7 17 13 33 15 16 2 35
11 42 20 9 13 13 14 13 4 0 -9 5 -8 16 6 8 10 12 12 8 4 -5 -12 -4 -12 6 -3 7
6 19 9 27 6 8 -3 13 0 11 7 -2 7 6 14 16 16 10 1 23 9 27 16 5 7 9 9 9 5 0 -4
10 -2 23 5 12 7 26 11 31 10 5 -2 5 5 2 15 -6 14 -5 15 5 6 8 -8 18 -9 31 -2
10 5 23 7 28 4 6 -4 9 -1 8 6 -2 7 3 14 10 15 6 1 17 2 23 3 5 0 7 5 4 11 -3
6 1 7 9 4 9 -3 16 -1 16 6 0 6 5 8 10 5 6 -3 10 -1 10 5 0 7 7 10 15 6 10 -3
15 1 15 12 0 15 2 15 10 2 5 -8 10 -10 10 -5 0 6 9 16 21 23 17 11 20 11 14 0
-3 -7 0 -5 8 5 8 10 26 19 40 21 14 1 32 10 42 19 9 9 21 17 26 17 5 0 28 12
50 26 23 14 43 23 46 20 4 -3 12 2 18 11 7 9 25 18 41 20 16 2 34 10 39 17 6
7 20 16 33 20 12 4 20 11 17 16 -3 4 2 11 11 14 10 4 13 2 8 -7 -4 -6 4 -2 17
10 24 22 27 23 55 23 8 0 13 4 10 9 -3 4 12 16 34 26 22 10 40 23 40 29 0 6 4
5 9 -2 7 -11 9 -10 15 3 3 9 10 13 16 10 5 -3 10 -1 10 5 0 6 4 9 9 5 6 -3 15
4 21 15 6 11 15 18 21 15 5 -4 9 -1 9 5 0 6 4 9 9 5 6 -3 14 2 19 11 5 9 12
16 15 15 14 -1 37 11 33 18 -3 4 7 8 22 9 14 1 30 9 35 17 4 8 12 15 17 15 6
0 19 9 31 21 11 11 27 18 35 15 7 -3 13 -2 11 2 -1 4 1 8 5 10 4 2 21 16 39
32 17 17 34 28 39 25 4 -2 18 4 30 15 12 11 27 17 33 13 5 -3 7 -2 4 4 -4 5 6
16 21 24 15 8 30 18 34 24 4 5 15 10 25 10 10 0 18 5 18 12 0 6 3 15 8 19 4 4
7 2 7 -5 0 -7 13 2 28 19 16 17 38 32 50 33 11 0 18 5 16 9 -3 4 6 12 19 17
14 6 31 19 39 30 8 12 18 18 21 14 4 -3 7 -1 7 5 0 7 7 12 15 12 9 0 18 7 21
15 4 8 10 12 15 9 5 -3 9 3 9 12 0 10 3 15 6 11 6 -6 17 2 59 41 14 13 25 17
25 11 0 -7 6 -4 14 6 8 11 12 24 8 30 -3 5 3 3 14 -5 10 -8 16 -11 12 -6 -9
11 21 42 50 50 12 4 20 11 17 16 -3 5 -1 11 5 15 5 3 10 1 10 -4 0 -6 9 -3 19
6 11 9 18 20 15 24 -2 4 5 10 16 14 11 3 20 11 20 16 0 5 5 9 11 9 5 0 7 -5 3
-12 -4 -7 -3 -8 4 -4 7 4 12 13 12 21 0 7 9 16 20 20 11 3 19 9 17 13 -1 4 1
7 5 7 4 0 13 9 21 19 8 11 19 16 26 12 6 -4 10 -4 9 1 -4 11 39 53 46 46 3 -4
6 -2 6 4 0 11 36 55 44 54 22 -3 27 1 22 14 -3 8 -2 14 2 14 18 -3 32 2 32 12
0 15 26 39 34 32 3 -4 6 -1 6 6 0 8 6 11 16 7 14 -5 15 -4 5 8 -14 16 -4 25
22 21 10 -2 17 3 17 11 0 9 5 12 10 9 6 -3 10 1 10 9 0 9 6 15 13 13 6 -1 11
6 11 15 -1 10 2 15 7 12 5 -3 12 2 15 10 3 9 12 16 20 16 8 0 13 6 11 13 -1 6
4 11 11 9 7 -1 17 9 22 23 5 14 21 30 35 35 14 5 25 12 25 15 0 4 -5 3 -12 -1
-7 -4 -8 -3 -4 5 6 9 12 9 24 -1 10 -7 14 -9 10 -4 -7 8 46 66 62 66 5 0 10 7
10 16 0 9 5 12 12 8 8 -5 9 -2 5 9 -4 11 -1 17 7 17 17 0 48 35 39 43 -3 4 -1
7 5 7 16 0 63 46 55 53 -3 4 4 7 17 7 13 0 20 3 17 7 -4 3 5 16 18 29 14 13
25 28 25 34 0 5 3 9 8 9 19 -3 33 2 27 11 -3 6 1 10 9 10 10 0 13 6 9 17 -4
11 -3 14 5 9 7 -4 12 -2 12 4 0 6 11 23 24 37 14 15 22 31 19 36 -3 6 -1 7 5
3 6 -4 17 2 24 14 7 11 18 20 25 20 7 0 12 4 10 9 -1 5 2 9 7 9 5 1 14 11 21
24 6 13 17 22 23 21 6 -2 14 7 18 20 3 12 35 49 70 82 35 34 64 67 64 74 0 7
17 29 38 49 21 21 37 43 34 51 -3 10 0 12 12 8 10 -4 15 -3 11 3 -3 6 -1 10 5
10 6 0 8 5 5 10 -3 6 -1 10 5 10 12 0 45 29 45 39 0 3 4 5 9 3 5 -2 3 5 -5 14
-8 10 -9 15 -4 12 11 -6 66 48 57 56 -3 3 2 6 11 6 11 0 14 5 10 16 -4 10 2
17 16 21 12 3 20 10 18 16 -2 6 7 21 20 33 12 11 20 24 17 27 -3 3 4 8 15 12
12 3 19 11 16 16 -4 5 -1 9 6 9 7 0 10 3 6 6 -8 8 16 33 26 27 4 -2 7 -1 6 4
-4 14 13 43 22 38 4 -3 6 4 4 16 -2 12 -2 19 1 16 3 -3 14 2 24 11 15 12 17
19 8 29 -8 11 -7 12 7 6 15 -5 17 -3 11 12 -4 11 -4 16 0 13 9 -9 37 20 30 31
-6 9 23 38 33 34 3 -2 6 3 6 10 0 6 11 23 25 36 14 13 18 20 10 16 -8 -4 -4 3
10 15 14 12 18 19 10 15 -8 -4 -2 4 14 19 16 14 26 26 22 26 -4 0 3 10 14 22
11 12 18 28 15 36 -2 7 0 10 5 7 6 -3 10 -1 10 4 0 6 8 11 18 11 12 0 14 2 4
8 -9 7 -6 15 12 35 14 15 26 30 26 32 2 20 15 35 25 31 8 -3 11 2 8 15 -3 11
1 21 11 25 9 3 13 10 10 15 -3 5 0 9 6 9 6 0 8 5 5 10 -3 6 -1 10 5 10 6 0 8
5 5 10 -3 5 -2 10 2 10 15 0 45 59 37 73 -4 6 -4 9 1 5 10 -10 36 18 38 41 0
11 4 18 7 16 3 -1 11 3 18 11 7 8 9 14 5 14 -4 0 -1 6 8 13 17 13 19 17 19 43
0 10 6 14 14 11 10 -4 13 -1 9 9 -3 7 0 14 5 14 6 0 9 9 7 20 -2 11 1 19 8 17
7 -1 11 4 10 11 -2 6 2 12 8 12 5 0 7 5 4 10 -3 6 1 13 9 16 9 3 13 10 10 15
-3 5 0 9 6 9 6 0 8 5 5 10 -3 6 -1 10 5 10 7 0 10 7 7 15 -4 8 -1 17 5 21 7 5
8 2 3 -6 -6 -9 -4 -11 4 -6 7 5 10 14 7 22 -3 8 -1 14 4 14 4 0 12 14 15 31 5
23 9 28 16 18 7 -11 9 -9 10 6 1 11 1 24 0 29 -1 5 4 6 12 3 7 -3 14 1 14 9 0
7 -5 10 -10 7 -6 -3 -2 6 9 20 10 15 23 27 28 27 5 0 2 8 -5 17 -8 9 -9 14 -2
10 7 -4 14 1 18 13 3 11 11 20 16 20 5 0 9 11 9 25 0 14 4 25 9 25 5 0 14 13
21 30 7 18 17 27 24 23 6 -4 4 2 -4 12 -8 10 -10 16 -5 13 6 -3 16 0 23 8 10
11 10 14 0 14 -10 0 -10 2 1 9 7 5 10 14 7 20 -5 7 -2 10 6 9 7 -2 12 5 12 15
-1 10 5 17 15 17 14 0 14 2 1 10 -12 8 -12 10 2 15 10 4 15 16 14 35 -2 25 0
27 13 17 12 -10 13 -9 7 1 -4 7 -2 19 4 27 6 8 9 18 6 24 -3 5 1 11 9 15 8 3
15 13 15 21 0 9 4 13 10 10 6 -3 7 1 4 9 -3 9 -1 16 6 16 6 0 8 5 5 10 -3 6 4
24 16 42 14 18 17 28 8 24 -7 -4 -6 -1 5 8 10 8 19 26 19 40 0 15 4 23 10 19
6 -4 8 0 4 10 -3 10 -2 17 3 17 6 0 10 9 10 21 0 11 4 18 8 15 4 -2 9 7 10 21
1 15 9 34 17 43 8 9 15 24 15 33 0 9 5 17 11 17 5 0 8 4 4 9 -3 5 0 13 6 16 5
4 8 13 5 21 -3 8 1 17 9 21 12 4 13 9 5 18 -8 10 -8 15 1 21 8 5 10 3 5 -7 -4
-8 -1 -5 8 5 8 10 13 23 10 27 -3 5 -1 9 4 9 5 0 8 11 7 25 -2 14 1 23 6 19 5
-3 9 6 9 20 0 13 7 31 15 40 9 8 16 19 15 23 0 4 6 16 14 25 10 12 11 18 3 21
-7 2 -2 15 12 36 13 18 20 35 17 38 -3 4 -6 0 -6 -7 0 -7 -3 -10 -6 -7 -4 4
-1 13 5 21 7 8 14 27 17 43 3 15 14 35 26 44 14 11 17 18 9 23 -8 5 -6 14 5
31 12 18 12 24 2 28 -9 4 -8 6 3 6 9 1 19 10 22 21 3 11 2 18 -2 15 -4 -2 -8
2 -8 10 0 8 4 12 9 9 4 -3 8 2 8 11 0 10 5 13 13 9 8 -5 8 -2 -2 9 -10 13 -10
17 -1 17 7 0 10 7 6 15 -3 8 -1 15 5 15 5 0 9 6 8 13 -3 23 1 38 9 33 4 -2 9
6 10 20 3 45 5 54 13 54 4 0 6 8 4 18 -1 9 7 28 19 41 11 13 15 21 9 17 -7 -4
-13 -3 -13 1 0 5 6 15 13 22 9 11 9 12 0 7 -9 -5 -11 -2 -7 8 3 9 10 16 14 16
5 0 7 9 5 21 -3 15 0 19 10 15 11 -4 12 0 5 19 -6 16 -5 25 3 28 7 3 14 22 15
43 2 20 10 43 19 49 11 9 13 14 4 19 -8 5 -7 12 5 23 12 13 13 17 2 24 -11 7
-11 9 0 9 7 0 10 5 7 10 -3 6 -1 10 5 10 6 0 8 4 5 10 -3 5 -1 19 6 31 6 12 7
19 1 15 -6 -3 -5 4 1 18 7 13 16 22 22 18 5 -3 4 2 -4 11 -15 19 -7 52 10 41
7 -4 7 1 -1 16 -7 12 -8 20 -2 16 5 -3 13 1 16 10 3 8 2 12 -4 9 -6 -3 -10 -1
-10 4 0 6 5 11 11 11 6 0 9 9 6 20 -3 13 0 20 9 20 11 0 12 4 5 18 -6 12 -7
22 -1 28 6 6 11 22 12 37 2 19 7 26 17 22 11 -4 12 -3 1 10 -10 12 -10 15 1
16 8 0 6 4 -5 8 -18 7 -18 8 0 26 11 10 18 20 17 22 -2 2 -3 4 -2 6 6 19 3 47
-5 47 -6 0 0 10 14 21 14 11 20 18 13 15 -7 -4 -11 1 -10 14 1 11 6 20 12 20
5 0 3 5 -5 10 -13 8 -12 10 4 10 15 0 16 3 6 15 -7 8 -9 15 -4 15 5 0 9 13 10
30 1 18 -3 27 -10 24 -6 -3 -4 0 5 8 8 7 15 25 15 40 0 14 7 34 15 44 12 16
12 17 -1 9 -9 -5 -7 1 5 15 11 13 15 20 9 17 -7 -4 -15 0 -18 9 -3 8 -2 12 4
9 9 -6 14 10 13 42 -1 7 3 10 8 7 11 -6 12 10 2 20 -12 11 -12 37 0 29 6 -4 8
0 4 10 -4 10 0 20 11 26 9 6 12 11 7 11 -6 0 -11 9 -11 19 0 11 4 17 8 15 4
-3 8 -1 8 5 0 5 -6 11 -12 14 -10 3 -10 7 -2 18 6 8 10 22 9 32 -2 9 1 15 5
12 5 -3 11 -1 14 4 3 5 -1 12 -10 15 -15 6 -15 9 2 28 11 12 13 18 7 14 -15
-8 -18 10 -4 18 5 4 8 18 6 32 -2 19 1 24 13 19 12 -5 12 -1 -3 15 -10 11 -14
20 -9 20 5 0 9 13 10 30 1 16 -3 27 -7 24 -5 -3 -6 2 -3 10 3 9 11 16 17 16 6
0 7 3 4 6 -3 4 -2 15 4 25 8 15 6 19 -8 20 -17 0 -17 1 -1 7 11 4 14 12 10 19
-11 17 -2 84 9 77 5 -3 9 2 9 11 0 10 -5 13 -12 9 -8 -5 -8 -1 1 10 13 15 13
19 0 27 -8 5 -9 9 -4 9 6 0 12 11 13 25 1 14 -3 25 -9 25 -7 0 -4 11 6 26 9
15 12 23 6 20 -6 -4 -11 -2 -11 3 0 6 5 11 10 11 6 0 10 4 10 10 0 5 -8 7 -17
4 -16 -5 -16 -4 -2 8 9 7 15 25 15 40 -1 14 2 24 7 21 5 -3 6 5 1 18 -9 29 -9
39 1 62 4 9 3 17 -2 17 -5 0 -10 7 -10 15 0 8 4 12 9 9 10 -6 9 4 -1 31 -5 11
-4 28 1 39 7 13 6 21 -3 27 -10 6 -10 9 -2 9 7 0 10 7 6 17 -5 12 -3 14 8 8 8
-5 5 2 -6 15 -11 13 -15 20 -9 17 7 -4 18 1 25 10 10 12 10 14 2 9 -7 -4 -13
-2 -13 3 0 6 6 11 13 11 8 0 7 4 -3 10 -13 9 -13 10 0 10 13 0 13 1 0 10 -13
9 -13 10 0 10 13 0 13 1 0 10 -13 9 -13 10 0 10 13 0 13 1 0 10 -12 8 -12 10
-1 10 11 0 11 3 0 17 -11 13 -11 17 -1 20 6 3 12 11 12 19 0 8 -6 14 -12 14
-9 0 -8 4 2 10 13 9 13 10 0 10 -13 0 -13 1 0 10 13 9 13 10 0 10 -13 0 -13 1
0 10 10 6 11 10 3 10 -7 0 -13 5 -13 11 0 5 4 8 8 5 4 -2 8 15 8 39 0 24 -4
41 -8 39 -4 -3 -8 0 -8 5 0 6 4 11 8 11 5 0 9 7 9 15 0 8 -4 12 -9 9 -4 -3 -8
0 -8 5 0 6 5 11 10 11 6 0 10 5 10 11 0 5 -6 7 -12 3 -9 -5 -9 -2 1 9 9 11 10
17 2 17 -6 0 -11 5 -11 11 0 5 4 8 8 5 5 -3 9 1 9 9 0 8 -4 12 -9 9 -4 -3 -8
0 -8 5 0 6 6 11 13 11 8 0 7 4 -3 10 -13 9 -13 10 0 10 13 0 13 1 0 10 -13 9
-13 10 0 10 13 0 13 1 0 10 -13 9 -13 10 0 10 13 0 13 1 0 10 -13 9 -13 10 0
10 12 0 13 2 1 9 -11 7 -11 9 0 14 12 5 12 6 0 6 -11 1 -11 4 -1 16 11 13 10
14 -4 9 -12 -5 -15 -2 -10 10 3 9 1 16 -6 16 -6 0 -8 5 -3 13 11 18 12 37 2
37 -6 0 -7 5 -3 12 11 18 12 68 2 68 -5 0 -6 6 -1 13 10 16 10 41 -1 48 -5 4
-5 13 0 20 13 21 14 39 2 39 -7 0 -6 5 1 14 9 10 9 16 1 21 -8 5 -8 11 1 21 9
11 9 14 0 14 -7 0 -9 5 -4 13 12 19 12 37 1 37 -6 0 -7 5 -2 13 5 6 9 19 8 27
-1 8 -2 20 -3 27 0 6 -9 14 -18 16 -17 4 -17 5 0 6 19 1 23 16 6 27 -8 4 -7 9
2 15 11 7 11 9 1 9 -7 0 -10 5 -7 10 3 6 1 10 -5 10 -6 0 -8 5 -5 10 4 6 12 7
18 3 7 -3 3 4 -8 17 -11 13 -15 20 -9 17 15 -9 27 20 12 29 -7 5 -8 2 -3 -6 6
-9 4 -11 -5 -5 -10 6 -9 11 5 22 11 7 13 13 6 13 -7 0 -9 5 -6 10 3 6 1 10 -6
10 -7 0 -5 6 6 13 14 11 15 16 5 22 -9 6 -11 4 -5 -5 6 -9 4 -11 -5 -5 -10 6
-10 11 4 20 13 10 14 14 3 18 -18 7 -29 57 -13 58 6 0 2 4 -9 9 -15 6 -16 9
-4 9 12 1 14 9 11 34 -3 17 -10 35 -16 39 -7 5 -6 8 4 8 9 0 16 9 16 20 0 11
-4 20 -9 20 -5 0 -4 6 2 14 9 11 9 16 0 22 -8 5 -9 3 -4 -6 6 -9 4 -11 -4 -6
-7 5 -10 14 -7 21 3 8 0 16 -7 19 -7 2 -3 5 8 6 l20 1 -20 9 c-11 5 -15 9 -9
9 8 1 9 14 4 41 -5 26 -4 37 3 33 6 -4 8 0 4 11 -4 10 -7 22 -7 27 0 6 -4 8
-8 5 -13 -8 -11 27 2 43 8 11 8 13 -2 7 -9 -5 -11 2 -8 28 3 20 1 38 -4 41 -5
3 -6 13 -3 22 5 12 3 14 -8 8 -12 -7 -12 -6 -1 7 10 13 10 17 0 20 -9 3 -10 9
-3 19 9 13 11 32 5 52 -1 4 -3 13 -4 20 -1 6 -8 11 -15 9 -8 -1 -10 2 -5 10
13 21 13 38 1 38 -8 0 -7 3 2 9 9 6 10 11 2 15 -8 5 -8 13 -1 27 8 15 7 19 -4
19 -10 0 -13 7 -11 22 3 12 -1 28 -8 37 -10 12 -9 13 1 7 15 -9 12 22 -5 64
-6 14 -7 26 -2 28 5 2 9 8 9 13 0 6 -4 7 -10 4 -5 -3 -10 1 -10 10 0 10 5 13
13 9 9 -6 9 -5 0 8 -7 8 -9 19 -5 23 4 5 2 5 -5 1 -6 -3 -14 -2 -18 4 -3 5 -2
10 2 10 7 0 9 44 3 60 -1 3 -2 8 -1 13 0 4 -3 7 -9 7 -5 0 -10 5 -10 11 0 5 5
7 12 3 7 -5 8 -3 2 7 -4 8 -10 23 -11 34 -2 11 -8 24 -13 29 -5 5 -5 18 0 31
5 14 4 27 -3 34 -8 8 -7 11 3 11 11 1 10 3 -3 11 -12 7 -16 17 -12 30 4 11 2
19 -6 19 -9 0 -8 4 1 15 9 11 9 15 1 15 -7 0 -11 8 -9 18 2 10 -2 16 -11 14
-12 -3 -12 -1 -1 13 11 14 11 18 0 25 -10 6 -8 9 6 13 15 4 15 5 3 6 -19 1
-34 31 -16 31 8 0 7 4 -3 11 -11 8 -12 12 -3 15 9 4 6 15 -8 40 -11 20 -15 33
-10 30 5 -3 8 5 7 18 0 13 -4 22 -7 20 -4 -2 -10 3 -13 12 -4 10 -2 13 7 8 8
-5 8 -2 -2 9 -7 9 -11 23 -8 31 3 8 1 16 -5 18 -6 2 -12 14 -13 26 -1 11 2 19
7 16 4 -3 8 0 8 5 0 6 -5 11 -11 11 -5 0 -7 5 -4 10 3 6 1 10 -4 10 -6 0 -10
3 -10 8 1 4 0 9 -1 12 -4 12 -11 58 -11 87 -1 18 -5 30 -10 27 -5 -3 -9 8 -9
23 0 16 -6 35 -12 42 -11 11 -10 12 1 6 8 -5 6 3 -5 21 -11 15 -13 25 -7 21 9
-6 11 -3 7 7 -3 9 -11 16 -16 16 -6 0 -5 6 2 15 10 12 10 15 0 15 -8 0 -10 3
-7 7 4 3 0 17 -8 30 -12 17 -12 23 -3 23 10 0 10 2 -1 9 -11 7 -11 9 0 14 10
4 10 6 2 6 -7 1 -13 12 -13 25 0 13 -7 27 -16 30 -8 3 -12 11 -9 16 4 6 2 17
-5 25 -8 9 -8 15 0 20 8 5 6 14 -5 31 -11 18 -12 24 -3 24 10 0 10 3 -1 9 -8
5 -10 14 -6 21 6 9 4 11 -4 6 -8 -5 -12 -3 -10 5 5 41 -1 61 -18 55 -15 -5
-15 -4 1 9 11 8 14 15 8 15 -7 0 -12 7 -12 15 0 8 -4 15 -8 15 -5 0 -9 7 -9
15 0 8 4 15 9 15 5 0 -1 14 -13 32 -13 17 -18 29 -13 25 6 -3 11 0 11 8 0 8
-4 12 -9 9 -4 -3 -8 3 -8 13 0 11 -6 25 -12 32 -10 11 -10 13 0 7 6 -4 12 -2
12 3 0 6 -5 11 -12 11 -6 0 -8 3 -5 7 4 3 1 13 -6 21 -10 13 -9 14 1 8 11 -7
12 -4 3 11 -6 11 -7 23 -4 27 3 3 0 6 -8 6 -10 0 -14 10 -14 35 1 19 -3 32 -8
28 -5 -3 -7 4 -5 14 2 11 -4 28 -12 38 -9 11 -10 16 -2 11 6 -4 12 -3 12 3 0
5 -5 11 -11 13 -6 2 -12 16 -12 31 -1 15 -5 27 -9 27 -4 0 -5 7 -2 15 4 9 0
15 -7 15 -11 0 -11 2 1 10 12 8 12 10 -3 16 -17 6 -17 7 0 21 10 8 13 12 7 9
-7 -3 -18 2 -25 11 -12 14 -12 16 1 8 12 -6 12 -5 3 5 -6 7 -9 19 -5 28 4 11
1 14 -9 10 -12 -5 -14 1 -13 26 1 17 -3 34 -9 38 -8 5 -7 8 3 8 9 0 11 3 5 8
-19 14 -33 49 -25 62 10 16 -10 51 -25 43 -5 -3 -4 0 3 8 6 7 12 17 12 22 0 4
-6 5 -12 1 -8 -5 -7 0 2 11 8 10 10 16 4 12 -7 -4 -15 0 -18 9 -8 22 -8 26 4
19 5 -3 7 0 4 9 -3 8 -11 17 -18 19 -6 3 -11 21 -10 41 2 27 -2 36 -15 37 -10
0 -11 2 -4 6 9 3 10 10 3 22 -5 10 -6 22 -2 26 4 5 -2 5 -12 1 -14 -5 -16 -3
-9 6 13 18 11 37 -7 48 -13 9 -13 10 0 10 12 0 12 2 1 9 -9 6 -10 11 -2 15 6
4 9 12 5 17 -3 5 -10 6 -16 3 -6 -4 -8 1 -3 15 4 13 2 21 -5 21 -6 0 -8 5 -5
10 3 6 0 10 -7 10 -8 0 -9 3 -3 8 6 4 10 17 11 29 0 17 -2 20 -12 12 -10 -8
-12 -6 -9 10 2 12 -1 21 -8 21 -7 0 -6 4 3 10 10 6 11 10 3 10 -7 0 -13 5 -13
11 0 5 6 7 13 3 6 -4 3 2 -7 14 -11 12 -16 22 -11 22 4 0 1 8 -6 17 -9 11 -10
14 -2 9 9 -5 11 -2 7 8 -3 9 -11 16 -18 16 -6 0 -4 5 4 10 8 5 10 10 3 10 -6
0 -10 13 -9 30 2 21 -2 30 -13 30 -14 0 -14 1 -1 10 11 7 12 10 2 10 -9 0 -11
7 -7 21 5 16 4 19 -5 14 -9 -5 -11 -4 -6 4 4 6 2 18 -4 26 -6 8 -9 19 -5 25 3
5 -2 10 -12 10 -14 0 -15 2 -4 9 8 5 11 16 8 24 -3 9 -1 18 6 21 7 2 5 5 -4 5
-9 1 -20 8 -23 17 -3 8 -2 12 4 9 17 -10 11 7 -7 22 -10 8 -12 12 -5 8 15 -7
16 11 2 20 -8 5 -7 11 1 21 9 11 8 15 -4 20 -9 3 -13 12 -10 20 3 8 1 14 -4
14 -8 0 -12 18 -14 67 -1 13 -4 21 -8 18 -4 -2 -8 2 -8 10 0 8 5 15 11 15 6 1
0 7 -14 15 -14 8 -20 14 -15 15 6 0 11 9 12 20 1 13 -2 18 -9 14 -7 -5 -9 -1
-5 9 3 9 2 19 -3 22 -5 3 -7 12 -4 20 3 8 0 21 -8 28 -7 8 -13 30 -12 50 1 21
-2 37 -6 37 -4 0 -7 14 -6 31 1 17 -3 37 -10 44 -10 9 -10 15 -1 25 9 10 9 11
-2 5 -11 -6 -13 -2 -9 18 3 17 0 28 -10 32 -11 4 -12 8 -2 20 10 12 10 15 0
15 -7 0 -10 7 -6 15 3 8 -1 21 -9 29 -11 11 -12 16 -2 20 9 5 9 7 0 12 -7 3
-13 16 -13 28 0 12 -5 27 -11 33 -8 8 -7 13 2 18 8 6 10 4 4 -5 -5 -9 -4 -11
3 -6 15 9 16 9 -9 37 -11 13 -16 25 -10 27 8 3 8 10 0 23 -5 11 -7 24 -4 29 3
6 -2 10 -12 11 -11 0 -13 3 -5 6 10 4 10 8 1 19 -10 12 -8 13 7 8 17 -6 18 -5
3 7 -22 18 -33 55 -19 64 6 3 7 12 3 18 -8 12 -9 17 -12 38 0 5 -5 8 -9 5 -5
-3 -9 1 -9 9 0 8 5 11 11 8 6 -4 5 1 -3 10 -9 11 -10 17 -2 17 20 0 12 20 -11
30 -13 5 -18 9 -13 9 15 1 16 41 2 41 -8 0 -8 3 1 9 18 11 17 22 -3 34 -14 8
-15 11 -4 18 10 6 11 9 2 9 -7 0 -13 8 -13 18 0 14 2 15 10 2 6 -9 10 -10 10
-3 0 6 -5 15 -10 18 -8 5 -7 11 1 21 9 11 8 14 -5 14 -10 0 -14 5 -11 10 3 6
2 10 -3 10 -12 0 -10 43 3 52 6 5 5 8 -2 8 -7 0 -13 5 -13 11 0 5 6 7 13 4 6
-4 5 -1 -4 7 -9 7 -15 23 -14 36 1 13 -3 25 -8 29 -5 3 -3 9 4 14 12 8 11 11
-1 19 -13 9 -13 10 0 10 11 1 10 4 -4 15 -14 11 -16 15 -5 15 11 0 12 2 1 9
-8 4 -14 12 -14 16 0 4 6 12 14 16 10 7 10 9 0 9 -7 0 -11 4 -7 9 3 5 -1 16
-9 24 -11 11 -12 17 -3 26 8 8 8 11 -2 11 -11 0 -11 3 -1 15 10 12 10 15 0 15
-10 0 -10 3 0 15 10 12 10 15 0 15 -9 0 -9 4 1 17 10 11 10 14 2 9 -9 -5 -13
-1 -13 11 0 11 -6 25 -12 32 -10 11 -10 13 0 7 14 -8 17 20 3 28 -10 7 -9 25
2 44 5 7 3 12 -4 12 -7 0 -9 3 -6 7 4 3 0 14 -9 24 -12 13 -12 19 -3 25 8 5
10 3 4 -6 -5 -9 -4 -11 3 -6 8 5 9 13 3 25 -6 10 -8 38 -6 63 3 39 1 47 -18
57 -16 8 -17 10 -3 6 16 -5 17 -3 6 10 -10 12 -10 15 0 15 9 0 9 4 2 13 -12
14 -11 35 1 55 5 7 4 12 -2 12 -6 0 -11 5 -11 11 0 5 6 7 13 3 7 -5 6 0 -3 11
-17 21 -24 105 -9 105 6 0 4 7 -5 15 -11 11 -12 23 -6 45 6 21 5 30 -3 30 -6
0 -2 7 9 16 10 8 13 13 7 9 -9 -4 -13 2 -13 20 0 17 -4 24 -12 19 -7 -5 -9 -2
-5 8 3 9 0 21 -6 27 -9 9 -8 11 3 6 11 -4 16 1 16 14 0 11 -4 17 -8 15 -10 -6
-5 26 6 45 6 10 5 12 -2 7 -7 -4 -12 -1 -12 9 0 10 5 13 13 9 6 -4 5 1 -4 12
-18 21 -14 48 4 37 9 -5 9 -3 2 8 -12 17 -13 39 -1 58 6 10 5 12 -2 7 -16 -10
-15 7 1 23 10 11 9 13 -1 7 -14 -8 -12 19 2 43 6 10 5 12 -3 7 -8 -5 -12 -3
-10 5 4 36 -2 70 -12 64 -6 -4 -5 3 3 14 11 18 11 23 -2 31 -12 8 -13 11 -1
19 9 6 10 10 2 16 -9 5 -9 10 0 21 9 11 8 14 -2 14 -11 0 -11 2 1 10 13 9 13
11 0 20 -13 9 -13 10 0 10 13 0 13 1 0 11 -12 8 -12 12 -2 16 10 4 10 8 0 21
-7 9 -8 13 -3 10 6 -4 17 3 24 14 11 18 11 20 -3 15 -10 -4 -13 -1 -9 8 3 8
10 12 17 8 8 -5 8 -3 1 8 -12 17 -13 39 -1 58 6 10 5 12 -2 7 -16 -10 -15 7 1
23 10 11 9 13 -1 7 -14 -8 -12 19 2 43 6 10 5 12 -2 7 -16 -10 -15 7 1 23 10
11 9 12 -2 6 -11 -6 -13 -4 -8 8 3 9 2 19 -3 22 -5 3 -7 12 -4 20 4 8 11 12
17 8 6 -4 7 -1 2 8 -5 7 -9 25 -10 39 -1 14 -5 32 -10 40 -8 13 -6 13 8 1 16
-12 17 -12 9 10 -6 15 -4 31 4 48 8 14 10 29 5 34 -12 12 -1 58 13 50 6 -3 6
0 -1 8 -7 7 -13 24 -13 37 0 16 4 21 13 16 6 -4 4 2 -6 13 -16 18 -16 21 -2
33 9 7 14 19 11 25 -2 7 0 17 6 23 7 7 6 17 -3 33 -9 17 -9 24 0 27 6 2 8 9 4
15 -13 21 -12 36 2 30 10 -3 13 2 9 22 -3 20 -1 25 8 19 11 -6 11 -5 0 8 -7 8
-10 26 -8 39 3 13 5 30 5 37 1 7 5 11 10 7 5 -3 13 0 17 6 4 7 3 9 -3 6 -6 -4
-13 0 -17 8 -3 8 -1 15 5 15 6 0 5 9 -2 23 -11 19 -10 20 3 9 13 -10 15 -9 10
13 -2 14 2 32 9 41 10 13 10 17 -2 26 -11 7 -11 11 -1 15 6 2 12 9 12 14 0 6
-4 8 -8 5 -4 -2 -8 4 -8 14 0 11 2 17 5 15 2 -3 10 0 18 6 10 9 10 15 2 25 -9
11 -8 18 2 31 9 11 10 14 2 9 -9 -5 -11 -2 -7 8 3 9 9 16 13 16 4 0 6 18 5 40
-1 24 2 37 9 33 6 -3 8 6 5 26 -2 17 -1 31 4 31 4 0 8 5 8 11 0 5 -6 7 -12 4
-7 -4 -4 1 7 10 17 14 18 17 5 25 -12 8 -12 10 -1 10 8 0 11 6 7 16 -3 9 -2
12 5 8 7 -4 10 3 7 19 -1 14 5 34 16 46 11 12 14 21 8 21 -7 0 -12 -5 -12 -12
0 -6 -3 -8 -7 -5 -3 4 2 17 13 29 10 12 14 19 8 15 -6 -3 -11 0 -11 8 0 8 4
12 9 9 4 -3 8 2 8 10 0 28 1 31 18 50 9 11 11 16 5 12 -7 -4 -13 -2 -13 3 0 6
4 11 10 11 5 0 7 7 4 15 -4 8 -1 15 6 15 6 0 8 5 5 10 -3 6 -1 10 4 10 6 0 11
5 11 11 0 5 -4 7 -10 4 -5 -3 -10 -1 -10 4 0 6 5 11 11 11 5 0 7 5 4 10 -3 6
-1 10 6 10 7 0 9 3 6 7 -4 3 0 17 9 31 13 20 14 26 3 33 -8 5 -9 9 -3 9 16 0
37 50 21 50 -6 0 -3 7 7 15 11 8 17 15 13 15 -4 0 -2 10 5 23 7 12 11 26 10
31 -2 4 3 15 10 24 11 13 11 15 -2 8 -8 -4 -7 -1 4 8 10 8 15 19 12 24 -3 6
-1 12 4 14 6 2 12 13 13 25 1 15 5 19 12 13 8 -7 11 1 9 25 -2 26 1 35 12 35
8 0 13 4 9 9 -3 5 -1 12 5 16 5 3 10 15 10 26 0 11 5 17 10 14 6 -4 10 7 10
24 0 17 5 31 11 31 6 0 9 7 5 15 -3 8 -1 15 5 15 6 0 8 7 5 16 -3 8 -2 13 3
10 10 -7 42 54 35 66 -3 4 0 8 5 8 6 0 11 7 11 15 0 8 5 15 11 15 5 0 8 4 5 9
-3 5 1 12 10 15 8 3 14 11 13 18 -3 26 1 39 11 33 6 -3 10 1 10 9 0 9 4 16 10
16 5 0 6 7 3 17 -4 11 -3 14 5 9 7 -4 14 3 18 19 3 13 10 22 15 19 5 -3 9 4 9
15 0 12 4 21 9 21 5 0 15 16 22 34 7 19 17 32 23 29 5 -4 7 1 3 10 -3 9 -3 16
1 16 18 -3 32 2 32 12 0 5 -6 7 -12 3 -7 -4 -4 3 7 14 29 30 45 50 48 59 1 5
5 7 9 6 4 -2 10 6 13 17 4 11 11 20 16 20 5 0 9 7 9 16 0 9 5 12 13 8 7 -5 7
-2 -2 10 -8 9 -10 16 -5 15 22 -4 34 2 34 17 0 10 6 14 14 11 11 -4 13 -1 9
10 -4 10 -2 14 4 10 10 -6 27 27 24 46 -1 7 16 11 34 7 6 -1 7 1 3 5 -9 9 14
35 25 28 5 -3 7 2 5 10 -2 9 1 16 6 15 5 0 13 7 18 16 5 9 17 16 26 16 15 0
15 2 2 10 -13 8 -12 10 3 10 9 0 17 5 17 11 0 5 4 8 9 4 5 -3 16 3 23 13 7 11
18 20 23 22 6 1 9 6 8 11 -2 5 2 9 8 9 5 0 8 4 5 9 -3 5 2 8 12 7 10 0 16 5
14 13 -3 12 -1 12 14 0 12 -9 15 -10 10 -1 -5 8 4 18 24 30 18 9 51 35 74 57
22 21 43 39 47 38 3 -1 4 11 3 27 -1 22 2 27 14 23 9 -4 13 -2 9 4 -4 6 -1 18
7 26 11 11 12 17 3 27 -9 10 -9 11 1 6 6 -4 12 -4 13 1 3 29 9 48 18 51 6 2
11 8 11 13 0 6 -4 8 -8 5 -5 -3 -9 1 -9 9 0 8 4 12 9 9 4 -3 8 0 8 5 0 6 -4
11 -10 11 -5 0 -10 5 -10 11 0 5 4 8 8 5 5 -3 9 1 9 9 0 8 -5 11 -10 8 -6 -4
-8 0 -4 9 3 9 0 24 -8 34 -9 12 -10 25 -4 35 6 12 4 19 -8 24 -15 5 -15 7 -3
15 13 8 12 10 -2 10 -10 0 -18 8 -18 18 0 9 -9 23 -21 30 -17 11 -19 16 -7 29
9 12 10 15 1 9 -8 -4 -13 -2 -13 4 0 6 -4 8 -10 5 -5 -3 -10 1 -10 9 0 9 -7
16 -15 16 -8 0 -15 7 -15 16 0 14 -3 14 -16 4 -12 -11 -15 -11 -12 1 2 8 -3
13 -9 12 -7 -2 -12 3 -10 10 1 6 -4 11 -10 10 -7 -2 -13 5 -13 15 0 15 -2 15
-10 2 -9 -13 -12 -13 -23 0 -6 8 -22 14 -34 12 -13 -2 -23 1 -23 7 0 6 -9 11
-21 11 -11 0 -18 4 -15 8 2 4 -4 9 -15 9 -11 1 -17 -3 -13 -8 8 -13 -38 12
-48 26 -5 6 -8 4 -8 -5 0 -12 -2 -12 -9 -2 -4 7 -18 14 -29 15 -12 1 -22 6
-22 11 0 5 -3 6 -7 3 -3 -4 -13 -1 -21 6 -13 9 -14 9 -8 0 5 -9 2 -11 -8 -7
-9 3 -14 9 -12 13 3 4 -11 8 -31 8 -19 1 -40 6 -46 12 -14 14 -30 14 -21 0 3
-6 -5 -3 -20 6 -14 10 -26 13 -26 9 0 -5 -5 -2 -10 6 -6 10 -10 11 -10 3 0 -9
-6 -7 -20 4 -19 17 -54 27 -45 14 2 -4 -2 -8 -10 -8 -8 0 -12 4 -10 8 5 7 -33
22 -49 20 -4 -1 -14 3 -20 9 -7 5 -16 7 -19 3 -4 -3 -14 0 -24 8 -9 8 -14 9
-10 3 3 -6 0 -11 -8 -11 -8 0 -12 4 -9 8 2 4 0 10 -6 14 -5 3 -10 0 -10 -7 0
-9 -3 -9 -8 -2 -4 6 -17 10 -29 9 -12 -1 -20 2 -17 7 8 13 -21 9 -35 -4 -10
-11 -11 -9 -5 6 5 13 4 17 -4 12 -7 -4 -12 -2 -12 4 0 6 -5 8 -12 3 -22 -13
-36 -11 -57 8 -12 11 -21 16 -21 11 0 -5 -7 -9 -15 -9 -8 0 -15 5 -15 11 0 6
-5 4 -10 -4 -6 -10 -10 -11 -10 -2 0 6 -3 11 -7 11 -22 -4 -33 2 -27 14 5 8 2
7 -9 -2 -15 -12 -20 -11 -37 4 -13 11 -20 14 -20 6 0 -7 -5 -9 -12 -4 -7 4
-24 6 -37 4 -16 -2 -21 1 -15 10 5 9 2 11 -9 6 -9 -3 -19 -1 -23 5 -4 7 -9 6
-15 -3 -7 -12 -9 -11 -10 1 0 10 -3 8 -9 -5 -7 -16 -9 -17 -9 -3 -1 12 -7 15
-23 10 -13 -3 -19 -1 -15 5 4 6 -1 10 -11 10 -47 0 -63 4 -57 13 7 12 -36 7
-56 -6 -8 -4 -9 -3 -5 4 7 12 -5 16 -33 13 -7 -2 -10 2 -7 7 6 11 -34 10 -51
-1 -8 -5 -13 -3 -13 5 0 11 -2 10 -9 0 -7 -11 -9 -11 -14 1 -3 10 -13 13 -25
10 -11 -2 -23 0 -26 6 -5 7 -13 8 -25 2 -12 -7 -26 -5 -45 4 -14 8 -24 10 -21
5 3 -6 -1 -7 -9 -4 -9 3 -13 11 -10 18 3 6 -2 2 -10 -8 -9 -11 -16 -14 -16 -7
0 7 -5 9 -11 5 -6 -3 -15 0 -20 7 -10 16 -41 18 -51 4 -5 -6 -12 -4 -18 5 -9
13 -10 13 -10 0 0 -13 -1 -13 -10 0 -5 8 -10 11 -10 6 0 -6 -7 -1 -16 10 -8
10 -13 14 -10 8 3 -7 -1 -15 -10 -18 -8 -3 -12 -2 -9 4 8 14 -28 13 -42 -1 -8
-8 -13 -7 -18 2 -6 8 -4 10 5 4 8 -5 11 -4 7 2 -3 5 -20 8 -37 5 -19 -3 -30 0
-30 8 0 9 -3 10 -13 1 -10 -8 -17 -7 -25 1 -9 9 -12 9 -12 -2 0 -12 -2 -13 -9
-1 -6 10 -10 10 -16 1 -5 -8 -13 -6 -28 7 -11 10 -17 13 -14 7 8 -14 -30 -26
-39 -13 -3 6 -12 5 -22 -3 -9 -7 -13 -8 -9 -2 10 17 -35 34 -57 22 -13 -7 -21
-7 -26 2 -6 9 -9 9 -13 -1 -4 -10 -6 -10 -6 -1 -1 6 -6 12 -12 12 -5 0 -8 -4
-5 -8 2 -4 -4 -8 -15 -8 -10 0 -19 5 -19 10 0 5 -3 6 -7 3 -3 -4 -17 0 -31 9
-13 9 -22 12 -19 7 4 -6 -9 -10 -28 -11 -22 -1 -35 3 -35 11 0 8 -4 7 -10 -3
-9 -13 -11 -13 -20 0 -5 8 -10 11 -10 5 0 -5 -20 -11 -45 -12 -33 -1 -43 2
-38 10 4 7 0 6 -10 -2 -10 -7 -17 -9 -17 -3 0 6 -8 9 -17 7 -10 -1 -22 0 -27
3 -17 10 -105 8 -99 -2 4 -5 1 -6 -7 -1 -18 11 -51 13 -77 3 -13 -4 -25 -3
-29 3 -4 7 -10 6 -19 -1 -9 -8 -15 -8 -20 0 -3 5 -11 10 -16 10 -6 0 -7 -5 -3
-11 5 -8 1 -8 -14 0 -14 7 -23 8 -27 1 -4 -6 -11 -7 -17 -4 -17 10 -69 13 -63
3 3 -4 -8 -4 -24 1 -16 4 -32 5 -35 2 -9 -8 -46 -10 -41 -2 2 3 -12 7 -32 7
-25 1 -32 -2 -22 -8 9 -6 10 -9 2 -9 -6 0 -15 5 -18 10 -5 8 -12 7 -23 -2 -9
-7 -13 -8 -9 -2 7 12 -61 13 -80 1 -6 -4 -13 -4 -16 0 -10 10 -67 12 -61 2z
m-10846 -20759 c0 -5 -2 -10 -4 -10 -3 0 -8 5 -11 10 -3 6 -1 10 4 10 6 0 11
-4 11 -10z"/>
<path d="M14915 19920 c3 -5 8 -10 11 -10 2 0 4 5 4 10 0 6 -5 10 -11 10 -5 0
-7 -4 -4 -10z"/>
<path d="M7670 18559 c0 -5 5 -7 10 -4 6 3 10 8 10 11 0 2 -4 4 -10 4 -5 0
-10 -5 -10 -11z"/>
</g>
</svg>
